/* XPM */
static char *_67_8a2155b15fa0e0e9d5b9b73665d55f1fb5e3c6baac5cf9fb59c4bc22bbeefbbf[] = {
/* columns rows colors chars-per-pixel */
"80 80 241 2 ",
"   c #1C0B06",
".  c #1D0B06",
"X  c #1D0C06",
"o  c #180A09",
"O  c #190B09",
"+  c #1B0C09",
"@  c #1B0D0A",
"#  c #1C0D09",
"$  c #1D0E0A",
"%  c #1E0F0B",
"&  c #1E100D",
"*  c #200F0C",
"=  c #20100B",
"-  c #20100C",
";  c #21120F",
":  c #22130E",
">  c #23130E",
",  c #22130F",
"<  c #25140D",
"1  c #24140F",
"2  c #211411",
"3  c #241511",
"4  c #251511",
"5  c #251611",
"6  c #271610",
"7  c #251613",
"8  c #231817",
"9  c #2A1810",
"0  c #2F1C15",
"q  c #2A1B18",
"w  c #281C19",
"e  c #291C1A",
"r  c #2D1F1E",
"t  c #311C12",
"y  c #301D14",
"u  c #2B201E",
"i  c #332018",
"p  c #35251E",
"a  c #3B251A",
"s  c #3D2619",
"d  c #3F2719",
"f  c #1D2235",
"g  c #2A2221",
"h  c #2D2224",
"j  c #2B2525",
"k  c #2B2726",
"l  c #2F2625",
"z  c #2E2428",
"x  c #2F2528",
"c  c #2E2A2B",
"v  c #2F2C2C",
"b  c #2E2E2F",
"n  c #352726",
"m  c #302827",
"M  c #302B2C",
"N  c #352F2F",
"B  c #3C2D28",
"V  c #382E2F",
"C  c #23293C",
"Z  c #323031",
"A  c #353436",
"S  c #383334",
"D  c #3D3334",
"F  c #393637",
"G  c #373239",
"H  c #383739",
"J  c #393739",
"K  c #3B353E",
"L  c #37383A",
"P  c #3B3A3C",
"I  c #3D3B3D",
"U  c #3B3C3E",
"Y  c #462E1F",
"T  c #4F3320",
"R  c #4F3525",
"E  c #4F3728",
"W  c #4D392E",
"Q  c #503523",
"!  c #503524",
"~  c #563925",
"^  c #5B3C26",
"/  c #50392B",
"(  c #51392B",
")  c #573C29",
"_  c #583F2E",
"`  c #483731",
"'  c #4A3C34",
"]  c #473F3B",
"[  c #433A3D",
"{  c #523C30",
"}  c #523E34",
"|  c #5F422C",
" . c #554239",
".. c #54413A",
"X. c #53423D",
"o. c #55433C",
"O. c #59403A",
"+. c #5D493F",
"@. c #64442C",
"#. c #674831",
"$. c #6D4B32",
"%. c #6D4E36",
"&. c #734F33",
"*. c #735137",
"=. c #745136",
"-. c #755338",
";. c #74553E",
":. c #2A3045",
">. c #2F374E",
",. c #3B3741",
"<. c #3C3742",
"1. c #3E3C40",
"2. c #353D55",
"3. c #403A41",
"4. c #403F42",
"5. c #413F4A",
"6. c #3B4560",
"7. c #404042",
"8. c #434142",
"9. c #414144",
"0. c #414245",
"q. c #424246",
"w. c #424346",
"e. c #434346",
"r. c #4C4143",
"t. c #424448",
"y. c #45454A",
"u. c #41414D",
"i. c #45474D",
"p. c #48434B",
"a. c #46484D",
"s. c #48484F",
"d. c #564745",
"f. c #5F4D42",
"g. c #584C4E",
"h. c #454451",
"j. c #4B4A57",
"k. c #4F4C54",
"l. c #45495C",
"z. c #494A5C",
"x. c #4E4E5E",
"c. c #504B52",
"v. c #594F52",
"b. c #5C5358",
"n. c #59535C",
"m. c #655245",
"M. c #795940",
"N. c #70594A",
"B. c #645959",
"V. c #47704C",
"C. c #7A614F",
"Z. c #6E615D",
"A. c #454D65",
"S. c #4D5261",
"D. c #4E5363",
"F. c #47516B",
"G. c #515466",
"H. c #5A5662",
"J. c #5B5966",
"K. c #545668",
"L. c #53596B",
"P. c #53596F",
"I. c #585A6B",
"U. c #5E5B69",
"Y. c #5D5C6A",
"T. c #495472",
"R. c #4E5A79",
"E. c #545D76",
"W. c #575D76",
"Q. c #605E6E",
"!. c #5F6275",
"~. c #54607E",
"^. c #586178",
"/. c #5A6178",
"(. c #58607B",
"). c #5D647F",
"_. c #716562",
"`. c #796B64",
"'. c #7B6E68",
"]. c #6C6974",
"[. c #60667A",
"{. c #79757C",
"}. c #816753",
"|. c #836955",
" X c #86756B",
".X c #8D7B6F",
"XX c #917F72",
"oX c #586381",
"OX c #5D6782",
"+X c #586585",
"@X c #5B6889",
"#X c #626880",
"$X c #636A83",
"%X c #616B89",
"&X c #606C8A",
"*X c #646C88",
"=X c #606C8D",
"-X c #646F8E",
";X c #6C7488",
":X c #71788D",
">X c #637092",
",X c #667293",
"<X c #657394",
"1X c #667497",
"2X c #67769B",
"3X c #68779B",
"4X c #68779C",
"5X c #6A7BA1",
"6X c #76809B",
"7X c #7887A8",
"8X c #868083",
"9X c #908A89",
"0X c #928D8C",
"qX c #9A918D",
"wX c #9C948F",
"eX c #808696",
"rX c #8E909C",
"tX c #A09691",
"yX c #868FA2",
"uX c #8893AB",
"iX c #9B9CA4",
"pX c #959DAF",
"aX c #8A98B5",
"sX c #9CA4B0",
"dX c #9AA7BD",
"fX c #A4A5AA",
"gX c #A6A7AB",
"hX c #ABAAAD",
"jX c #A2AAB7",
"kX c #A9AFB8",
"lX c #AEB4BD",
"zX c #A9B3C3",
"xX c #ABB7C9",
"cX c #B3B9C1",
"vX c #B3BDC9",
"bX c #B6C1CF",
"nX c #B8C1CC",
"mX c #B9C2CC",
"MX c #BAC3CD",
"NX c #BBC6D2",
"BX c None",
/* pixels */
"BXBXBXBXBXBXBXBXBXBXBXBXBXBXBXBXBXBXBXBXBXBXBXBXBXBXBXBXBXBXBXBXBXBXBXBXBXBXBXBXBXBXBXBXBXBXBXBXBXBXBXBXBXBXBXBXBXBXBXBXBXBXBXBXBXBXBXBXBXBXBXBXBXBXBXBXBXBXBXBX",
"BXBXBXBXBXBXBXBXBXBXBXBXBXBXBXBXBXBXBXBXBXBXBXBXBXBXBXBXBXBXBXBXBXBXBXBXV.V.V.V.V.V.V.V.V.V.V.V.V.V.V.V.V.V.V.BXBXBXBXBXBXBXBXBXBXBXBXBXBXBXBXBXBXBXBXBXBXBXBXBX",
"BXBXBXBXBXBXBXBXBXM j j ; ; ; ; ; ; ; ; ; ; ; ; ; ; ; ; ; ; ; ; ; ; ; ; ; ; ; ; ; ; ; ; ; ; ; ; ; ; ; ; ; ; ; ; ; ; ; ; ; ; ; ; ; ; ; BXBXBXBXBXBXBXBXBXBXBXBXBX",
"BXBXBXBXBXBXBXBXM P A k O $ 2 $ $ $ $ $ $ $ $ $ $ $ $ $ $ $ $ $ $ $ $ $ $ $ $ $ $ $ $ $ $ $ $ $ $ $ $ $ $ $ $ $ $ $ $ $ $ $ $ $ 2 $ $ $ & A P BXBXBXBXBXBXBXBXBX",
"BXBXBXBXBXBXBXBX; & 2 % + . . . . . . . . . . # # # # # # # # # # # # # # # # # # # # # # # # # # # # # # # # # # . . . . . . . . . . + % 2 & BXBXBXBXBXBXBXBXBX",
"BXBXBXBXBXBXBXBXBX2 o 8 + X : X X X X X X X X $ $ $ $ $ $ $ $ $ $ $ $ $ $ $ $ $ $ $ $ $ $ $ $ $ $ $ $ $ $ $ $ $ $ X X X X X X X X : X + 8 o 2 BXBXBXBXBXBXBXBXBX",
"BXBXBXBXBXBXBXBX& % w : = - 3 - - * * * * * * * * * * * * * * * * * * * * * * * * * * * * * * * * * * * * * * * * * * * * * * - - 3 - = : w % & BXBXBXBXBXBXBXBX",
"BXBXBXBXBXBXBXv 2 . $ = 3 > 1 > 7 7 7 7 7 7 7 7 7 7 7 > > > > > > > > > > > > > > > > > > > > > > > > > > 7 7 7 7 7 7 7 7 7 7 7 1 1 > 3 = $ . 2 v BXBXBXBXBXBXBX",
"BXBXH M ; v & 2 + O 7 4 6 q q r h z z z z z z h r q q 9 9 9 9 9 9 9 9 9 9 9 9 9 9 9 9 9 9 9 9 9 9 9 9 9 9 q q r h z z z z z h h r q q 6 3 7 w o 2 & BXBXBXBXBXBX",
"BXBXM P & 2 % . O : e 0 i p n V D K K K K K K D V n p i y y y y y y y y y y y y y y y y y y y y y y y y i p n V D K K K K K K D V n r i 4 = : w # c $ & ; BXBXBX",
"BXBXj A 2 o w $ 7 e 4 s a B D 3.h.l.l.A.A.l.l.h.3.D B a a a a a a a a a a a a a a a a a a a a a a a a a a B D 3.h.l.l.A.A.l.l.h.3.D B s 0 3 u : + 8 % $ A BXBXBX",
"BXBX; k % 8 : = 4 0 s s Y ` r.j.K.W.~.oXoX~.W.K.j.r.` Y Y Y Y Y Y Y Y Y Y Y Y Y Y Y Y Y Y Y Y Y Y Y Y Y R ` r.j.K.W.~.oXoX~.W.K.j.r.` s 0 0 4 * @ $ , c & j BXBX",
"BXBX; O + + = 3 6 y a Y ( o.v.U.#X-X1X4X4X1X-X#XU.v...( Q T Q R R R R R ( R R R ( R R R R R R R R Q T Q ( ..v.U.#X-X1X4X4X1X-X#XY.v. ./ s s 0 3 3 7 O o O ; BXBX",
"BXBX; $ # X - > 9 y d T _ +.B.].:X6X7X7X7X7X6X:X].B.+._ ) ~ ~ ) ) ) ) ) ) ) ) ) ) ) ) ) ) ) ) ) ) ~ ~ ) _ +.B.].:X6X7X7X7X7X6X:X].B.f./ ! s i 6 3 = + + O ; BXBX",
"BXBX; $ . X 3 1 9 i Y Q | m._.{.eXuXaXaXaXaXuXeX{._.m.#.| | | | | | @.| | | | | | | | @.| @.| | | | | | #.m._.{.eXuXaXaXaXaXuXeX{._.m. .! Y i 1 5 = $   $ ; BXBX",
"BXBX; $ . X - 1 y a Y ) #.N.'.8XrXpXdXdXdXdXpXrX8X'.N.%.#.@.@.#.#.#.#.#.#.#.#.#.#.#.#.#.#.#.#.#.#.@.@.#.%.N.'.8XrXpXdXdXdXdXpXrX8X'.N.%.) Y a y 5 = +   $ ; BXBX",
"BXBX; $ . X - 6 y a T | %.C. X0XiXjXzXxXxXzXjXiX9X XC.;.$.$.$.$.%.%.%.%.%.&.%.%.%.%.%.%.%.%.%.%.$.$.$.$.;.C. X9XiXjXzXxXxXzXjXiX0X XC.%.| T a 6 3 = + + $ ; BXBX",
"BXBX; $ # $ * 6 y d T | ;.}..XwXgXlXvXbXbXvXlXfXqX.X}.;.&.&.&.&.*.*.=.=.*.*.*.=.=.=.*.*.*.*.*.*.&.&.&.&.;.}..XqXfXlXvXbXbXvXlXgXwX.X}.;.| T d t 3 = + + O ; BXBX",
"BXBX; $ # $ * 6 y d Q @.;.|.XXtXhXcXmXNXNXmXcXhXwXXX|.M.=.&.&.-.-.-.-.-.-.-.-.-.-.-.-.-.-.-.-.-.-.&.&.=.M.|.XXwXhXcXmXNXNXmXcXhXtXXX|.;.@.Q d t 3 = + + O ; BXBX",
"BXBX; $ # $ * 6 y d Q @.;.|.XXtXhXcXMXNXNXMXcXhXtXXX|.M.-.&.=.-.-.-.-.-.-.-.-.-.-.-.-.-.-.-.-.-.-.=.&.-.M.|.XXtXhXcXMXNXNXMXcXhXtXXX|.;.@.Q d t 3 = + + O ; BXBX",
"BXBX; $ # $ * 6 y d Q @.;.|.XXtXhXcXMXNXNXMXcXhXtXXX|.M.=.&.=.-.-.-.-.-.-.-.-.-.-.-.-.-.-.-.-.-.-.=.&.=.M.|.XXtXhXcXMXNXNXMXcXhXtXXX|.;.@.Q d t 4 @ + + O ; BXBX",
"BXBX; $ # $ * 6 y d Q @.;.|.XXtXhXcXnXNXNXnXcXhXwXXX}.M.=.&.&.-.-.-.-.-.-.-.-.-.-.-.-.-.-.-.-.-.-.&.&.=.M.}.XXwXhXcXnXNXNXnXcXhXtXXX|.;.@.Q s t 4 @ O o O ; BXBX",
"BXBX; $ # $ * 6 y d T @.;.|.XXtXhXcXnXNXNXnXcXhXwXXX}.M.=.&.&.=.-.-.-.-.-.-.-.-.-.-.-.-.-.-.-.-.=.&.&.=.M.}.XXwXhXcXnXNXNXnXcXhXtXXX|.;.@.! s 0 4 @ O o O ; BXBX",
"BXBX; $ # $ * 6 y d T @.;.|.XXtXhXcXnXNXNXnXcXhXwXXX}.M.=.&.&.=.-.-.-.-.-.-.-.-.-.-.-.-.-.-.-.-.=.&.&.=.M.}.XXwXhXcXnXNXNXnXcXhXtXXX|.;.@.! s 0 4 @ O o O ; BXBX",
"BXBX; $ # $ * 6 y d T @.;.|.XXtXhXcXnXNXNXnXcXhXwXXX}.M.=.&.&.=.-.-.-.-.-.-.-.-.-.-.-.-.-.-.-.-.=.&.&.=.M.}.XXwXhXcXnXNXNXnXcXhXtXXX|.;.@.! s 0 4 @ O o O ; BXBX",
"BXBX; $ # $ * 6 y d T @.;.|.XXtXhXcXnXNXNXnXcXhXwXXX}.M.=.&.&.=.-.-.-.-.-.-.-.-.-.-.-.-.-.-.-.-.=.&.&.=.M.}.XXwXhXcXnXNXNXnXcXhXtXXX|.;.@.! s 0 4 @ O o O ; BXBX",
"BXBX; $ # $ * 6 y d T @.;.|.XXtXhXcXnXNXNXnXcXhXwXXX}.M.=.&.&.=.-.-.-.-.-.-.-.-.-.-.-.-.-.-.-.-.=.&.&.=.M.}.XXwXhXcXnXNXNXnXcXhXtXXX|.;.@.! s 0 4 @ O o O ; BXBX",
"BXBX; $ # $ * 6 y d T @.;.|.XXtXhXcXnXNXNXnXcXhXwXXX}.M.=.&.&.=.-.-.-.-.-.-.-.-.-.-.-.-.-.-.-.-.=.&.&.=.M.}.XXwXhXcXnXNXNXnXcXhXtXXX|.;.@.! s 0 4 @ O o O ; BXBX",
"BXBX; $ # $ * 6 y d Q @.;.|.XXtXhXcXnXNXNXnXcXhXwXXX}.M.=.&.&.-.-.-.-.-.-.-.-.-.-.-.-.-.-.-.-.-.-.&.&.=.M.}.XXwXhXcXnXNXNXnXcXhXtXXX|.;.@.! s 0 4 @ O o O ; BXBX",
"BXBX; $ # $ * 6 y d Q @.;.|.XXtXhXcXMXNXNXMXcXhXtXXX|.M.=.&.=.-.-.-.-.-.-.-.-.-.-.-.-.-.-.-.-.-.-.=.&.=.M.|.XXtXhXcXMXNXNXMXcXhXtXXX|.;.#.! s 0 3 @ O o O ; BXBX",
"BXBX; $ # $ * 6 y d Q @.;.|.XXtXhXcXMXNXNXMXcXhXtXXX|.M.-.&.=.-.-.-.-.-.-.-.-.-.-.-.-.-.-.-.-.-.-.=.&.-.M.|.XXtXhXcXMXNXNXMXcXhXtXXX|.M.#.! s 0 3 @ O o O ; BXBX",
"BXBX; $ # $ * 6 y d Q @.;.|.XXtXhXcXmXNXNXmXcXhXwXXX|.M.=.&.&.-.-.-.-.-.-.-.-.-.-.-.-.-.-.-.-.-.-.&.&.=.M.|.XXwXhXcXmXNXNXmXcXhXtXXX|.;.#.! s 0 3 @ O o O ; BXBX",
"BXBX; $ # $ * 6 y d T | ;.}..XwXgXlXvXbXbXvXlXfXqX.X}.;.&.&.&.&.*.-.=.-.-.-.-.-.-.-.-.-.*.-.*.*.&.&.&.&.;.}..XqXfXlXvXbXbXvXlXgXqX.X}.;.@.! s 0 4 @ O o O ; BXBX",
"BXBX; $ # $ * 6 y a T ^ %.C. X9XiXjXzXxXxXzXjXiX9X XC.*.$.#.$.$.$.$.$.$.$.$.$.$.$.$.$.$.$.$.$.$.$.#.$.$.*.C. X9XiXjXzXxXxXzXjXiX9X XC.%.| T s 0 4 @ O o O ; BXBX",
"BXBX; $ # $ * 6 y a Y ~ #.N.`.8XrXpXdXdXdXdXpXrX8X`.N.#.@.@.@.@.@.@.@.@.@.@.@.@.@.@.@.@.@.@.@.@.@.@.@.@.#.N.`.8XrXpXdXdXdXdXpXrX8X`.N.#.^ Y s 0 4 @ O o O ; BXBX",
"BXBX; $ # $ * 6 9 i d Q | m.Z.{.eXyXuXaXaXuXyXeX{.Z.m.| ^ ^ ^ ^ ^ ^ ^ ^ ^ ^ ^ ^ ^ ^ ^ ^ ^ ^ ^ ^ ^ ^ ^ ^ | m.Z.{.eXyXuXaXaXuXyXeX{.Z.m.| Q Y t 5 4 @ O o O ; BXBX",
"BXBX; $ # $ * > 9 y d T ) +.B.].:X6X7X7X7X7X6X;X].B.+._ ~ ~ Q ~ ~ ~ ~ ~ ~ ~ ~ ~ ~ ~ ~ ~ ~ ~ ~ ~ ~ ~ Q ~ _ +.B.].;X6X7X7X7X7X6X:X].B.+._ T d t 5 4 @ O o O ; BXBX",
"BXBX; $ # $ * > 9 i d Y { d.b.Q.*X1X5X5X5X5X1X*XQ.b.d.} ( ( ) _ _ _ _ _ _ _ _ _ _ _ _ _ _ _ _ _ _ ) ( ( } d.b.Q.*X1X5X5X5X5X1X*XQ.b.d.{ R d t 7 4 @ O o O ; BXBX",
"BXBX; $ # $ * 7 q p B ` o.g.H.!.*X,X2X4X4X2X,X*X!.H.g.d.o.+.+.f.m.m.m.m.m.m.m.m.m.m.m.m.m.m.m.m.f.+.+.o.d.g.H.!.*X,X2X4X4X2X,X*X!.H.g.o.` B p 6 3 @ + + O ; BXBX",
"BXBX; $ # $ * 7 q n D r.v.H.!.#X*X,X1X2X2X1X,X*X[.Q.H.b.b.B.Z._.`.'.'.'.'.'.'.'.'.'.'.'.'.'.'.'._.Z.B.b.b.H.Q.[.*X,X1X2X2X1X,X*X#X!.H.v.r.D n 7 3 = + + O ; BXBX",
"BXBX; $ # $ * 7 r V 3.x.U.[.$X*X>X1X1X2X2X1X1X>X*X).!.!.].].{.8X9X0X0X0X0X0X0X0X0X0X0X0X0X0X0X9X8X{.].].!.!.).*X>X1X1X2X2X1X1X>X*X$X[.U.x.5.V h 5 = +   $ ; BXBX",
"BXBX; $ # $ * 7 h D h.K.).*X,X,X1X1X2X2X2X2X1X,X-X*X*X*X;XeXrXiXfXfXgXgXfXfXfXfXfXfXfXfXgXgXfXfXiXrXeX;X*X*X*X-X,X1X2X2X2X2X1X1X,X,X*X).K.h.K h 5 * $   $ ; BXBX",
"BXBX; $ . $ * 7 h K j.P.$X-X,X,X,X,X,X1X1X,X,X>X>X=X=X-X:XeXuXsXkXkXlXkXkXkXkXkXkXkXkXkXkXlXkXkXsXuXeX:X-X=X=X>X>X,X,X1X1X,X,X,X,X,X-X$XP.j.K h 7 * $ # $ ; BXBX",
"BXBX; $ # $ * 7 h D h.G.).$X=X=X=X=X=X=X=X=X=X=X@X+X).$X;X6XyXpXsXjXjXjXsXsXsXsXsXsXsXsXjXjXjXsXpXyX6X;X$X).+X@X=X=X=X=X=X=X=X=X=X*X+X).G.h.D h 7 * $ # $ ; BXBX",
"BXBXj O   $ * 7 r V 3.j.G.P.W.~.oXoX+X+X+X+XoX~.E.P.P.P.!.$X:XeXyXyXyXyXyXeXeXeXeXeXeXyXyXyXyXyXeX:X$X!.P.P.P.E.~.oX+X+X+X+XoXoX~.W.P.G.j.3.V r 7 * $   $ j BXBX",
"BXBXj O   $ * 7 q z V 3.p.j.x.G.T.R.R.R.R.R.R.P.A.l.j.j.x.J.!.;X;X:X;X;X#X[.[.[.[.[.[.[.;X;X:X;X;X!.J.x.j.j.l.A.T.R.R.R.R.R.R.T.G.x.j.p.3.V z q 7 * $   O j BXBX",
"BXBX; $   $ * > 9 q p B D 3.5.l.A.F.T.T.T.T.F.A.h.5.3.[ [ p.x.P.W.E.P.F.A.l.l.h.l.l.l.A.F.P.E.W.P.x.p.[ [ 3.5.h.A.F.T.T.T.T.F.A.l.5.3.D B p q 9 > * $   $ ; BXBX",
"V.H v 2 . $ * > < 9 y i n V K 5.l.A.F.T.T.F.A.l.5.K V B V 3.h.l.F.A.6.2.>.:.:.:.:.:.:.>.2.6.A.F.l.h.3.V B V K 5.l.A.F.T.T.F.A.l.5.K V n i y 9 < > * $ . 2 v BXBX",
"M P k c , : - > < < 9 y p B K 5.l.F.T.T.T.T.F.l.5.D B B B D 5.l.A.A.6.>.:.C C f f C C :.>.6.A.A.l.5.D B B B D 5.l.F.T.T.T.T.F.l.5.K B p y 9 < < > - : , c k BXBX",
"A 0.9.Z w 7 3 > < < 9 y i B K h.A.T.R.~.~.R.T.A.h.[ B B B [ h.A.F.F.6.>.:.f f f f f f :.>.6.F.F.A.h.[ B B B [ h.A.T.R.~.~.R.T.A.h.K B i y 9 < < > 3 7 w Z 9.0.BX",
"9.w.U J g 7 4 > < < 9 y p B 3.j.P.~.+X@X@X+X~.P.j.r.` Y ` r.x.P.R.T.A.2.:.C f f f f C :.2.A.T.R.P.x.r.` Y ` r.j.P.~.+X@X@X+X~.P.j.3.B p y 9 < < > 4 7 g J U w.9.",
"U w.P I m u 3 1 < < 9 y p V 5.x.W.@X=X>X>X=X@X!.H.d.} ( } d.H.!.+X~.T.6.>.C f f f f C >.6.T.~.+X!.H.d.} ( } d.H.!.@X=X>X>X=X@XW.x.5.V p y 9 < < 1 3 u m I P w.U ",
"i.a.4.F m e 3 1 < < 9 y p D p.G.).=X1X4X4X1X-X#XJ.g...{ ..g.U.#X=X+XR.A.2.:.C C C C :.2.A.R.+X=X#XU.g...{ ..g.J.#X-X1X4X4X1X=X).G.p.D p y 9 < < 1 3 e m F 4.a.i.",
"a.e.I S l e 3 1 < < 9 y p D p.K.).,X4X5X5X4X,X#XU.g...{ o.v.Q.$X-X=X~.T.6.2.>.>.>.>.2.6.T.~.=X-X$XQ.v.o.{ ..g.U.#X,X4X5X5X4X,X).K.p.D p y 9 < < 1 3 e l S I e.a.",
"a.e.I S l e 3 1 < < 9 y p D p.K.).,X4X5X5X4X,X$XU.g.o.} o.v.Q.$X,X>X@X~.T.A.6.6.6.6.A.T.~.@X>X,X$XQ.v.o.} o.g.U.$X,X4X5X5X4X,X).K.p.D p y 9 < < 1 3 e l S I e.a.",
"a.e.I S l e 3 1 < < 9 y p D p.K.).,X4X5X5X4X,X#XU.g...} o.v.Q.$X,X1X>X@X~.R.R.R.R.R.R.~.@X>X1X,X$XQ.v.o.} ..g.U.#X,X4X5X5X4X,X).K.p.D p y 9 < < 1 3 e l S I e.a.",
"a.q.I S l e 3 1 < < 9 y p D p.K.).>X4X5X5X4X,X#XU.g...{ o.g.U.$X,X1X1X>X=X@X@X+X+X@X@X=X>X1X1X,X$XU.g.o.{ ..g.U.#X,X4X5X5X4X>X).K.p.D p y 9 < < 1 3 e l S I q.a.",
"i.t.8.S l e 3 1 < < 9 y p D p.K.).>X4X5X5X4X,X#XU.g...{ ..g.J.[.*X,X,X>X-X=X=X=X=X=X=X-X>X,X,X*X[.J.g...{ ..g.U.#X,X4X5X5X4X>X).K.p.D p y 9 < < 1 3 e l S 8.t.i.",
"i.e.I S l e 3 1 < < 9 y p D p.K.).>X4X5X5X4X,X#XU.g...{ } d.b.Q.[.$X$X$X$X$X$X$X$X$X$X$X$X$X$X[.Q.b.d.} { ..g.U.#X,X4X5X5X4X>X).K.p.D p y 9 < < 1 3 e l S I t.i.",
"i.t.I S l e 5 1 < < 9 y p D p.K.).>X4X5X5X4X,X#XU.g...{ { o.g.b.J.Q.Q.Q.Q.Q.Q.Q.Q.Q.Q.Q.Q.Q.Q.U.b.g.o.{ { ..g.U.#X,X4X5X5X4X>X).K.p.D p y 9 < < 1 5 e l S I t.i.",
"i.t.I S l e 5 < < < 9 y p D p.K.).>X4X5X5X4X,X#XU.v...{ ( { o.d.g.v.v.v.b.b.b.b.b.b.b.b.v.v.v.g.d.o.{ ( { ..v.U.#X,X4X5X5X4X>X).K.p.D p y 9 < < < 5 e l S I t.i.",
"i.t.I S l e 3 1 < < 9 y p D p.K.).>X4X5X5X4X,X#XU.v...( ( ( { } ..o.o.o.o...o.o.o...o.o.o.o.o.o.} { ( ( ( ..v.U.#X,X4X5X5X4X>X).K.p.D p y 9 < < 1 3 e l S I t.i.",
"a.t.8.S m u 4 7 1 < 9 y p D p.G.).>X4X5X5X4X,X#XU.v...( R Q R ( ( ( ( ( ( ( ( ( ( ( ( ( ( ( ( ( ( R Q R ( ..v.U.#X,X4X5X5X4X>X).G.p.D p y 9 < 1 7 4 u m S 8.t.a.",
"a.e.8.F m u e 3 5 6 1 y p V p.G.).>X4X5X5X4X,X$XU.v.o.( Q T T Q Q Q Q Q Q Q Q Q Q Q Q Q Q Q Q Q Q T T Q ( o.v.U.$X,X4X5X5X4X>X).G.p.V p y 1 6 5 3 e u m F 8.q.a.",
"t.e.8.F N m u e 3 3 7 6 r V 5.G.).>X4X5X5X4X,X$XQ.v.o.( Q T T T T T T T T T T T T T T T T T T T T T T Q ( o.v.Q.$X,X4X5X5X4X>X).G.5.V r y 7 3 3 e u m N F 8.e.t.",
"e.y.8.I F N m l u 3 3 6 q n 3.x.).>X4X5X5X4X,X$XQ.v.o.( Q T T T T T T T T T T T T T T T T T T T T T T Q ( o.v.Q.$X,X4X5X5X4X>X).x.3.V q 6 3 3 u l m N F I 8.e.e.",
"e.e.4.8.I I F N m u 3 5 q z 3.x.).>X4X5X5X4X,X$XU.v.o.( Q T T Q Q Q Q Q Q Q Q Q Q Q Q Q Q Q Q Q Q T T Q ( o.v.U.$X,X4X5X5X4X>X).x.3.z q 5 3 u m N F I 8.4.4.e.q.",
"7.7.7.7.t.t.4.I N l e 3 7 x <.x.(.-X3X3X3X3X-X#XY.v. ./ ! ! ! ! ! ! ! ! ! ! ! ! ! ! ! ! ! ! ! ! ! ! ! ! /  .v.Y.#X-X3X3X3X3X-X(.x.<.x 5 3 e l N I 4.7.7.7.7.7.i.",
"w.w.w.w.w.i.a.8.F m u 3 4 0 5.z./.%X<X<X<X<X%X/.n.n.X.E E E E E E E E E E E E E E E E E E E E E E E E E E X.n.n./.%X<X<X<X<X%X/.z.,.4 3 e 7 m F 4.i.P w.w.w.w.w.",
"w.w.w.U U w.i.e.F N l u e u ,.c.I.OXOX&X&XOXOXI.I.c.O.W W W W W W W W W W W W W W W W W W W W W W W W W W O.c.I.I.OX&X&X&X&X^.L.u.G u u 7 m g I J w.U U w.w.w.w.",
"0.0.L 9.w.U i.e.I S m m l G u.k.L.L.^.^.^.^.L.L.k.k.' ' ' ' ' ' ' ' ' ' ' ' ' ' ' ' ' ' ' ' ' ' ' ' ' ' ' ' k.k.L.^.^.^.D.D.D.D.s.S N m g g w 7.P w.U w.9.L 0.0.",
"P P v 0.9.U w.t.8.I F S S 1.1.s.s.D.D.D.D.D.D.D.s.s.s.] ] ] ] ] ] ] ] ] ] ] ] ] ] ] ] ] ] ] ] ] ] ] ] ] ] s.s.s.D.D.S.S.a.i.i.i.J J 8 8 8 8 J P Z U w.L k v P P ",
"V.H j v 0.w.w.i.t.e.4.4.4.4.4.y.y.y.y.y.y.y.y.y.y.8.8.8.8.8.8.8.8.8.8.8.8.8.8.8.8.8.8.8.8.8.8.8.8.8.8.8.8.8.8.y.y.y.a.i.w.U U c U U Z Z Z Z Z Z U c 9.k v j H BX",
"V.V.H P A 9.w.U w.w.w.w.w.w.w.i.P 7.7.7.q.q.e.q.e.q.q.q.q.q.q.q.q.q.q.q.q.q.q.q.q.q.q.q.q.q.q.q.q.q.q.q.t.e.e.e.e.7.P Z U c b 2 2 b b b c c c c c b 0.v ; H BXBX",
"BXBXV.j v 0.L w.w.w.w.w.9.w.U U w.P P J J 7.7.q.q.t.t.t.t.t.t.t.t.t.t.t.t.t.t.t.t.t.t.t.t.t.t.t.t.t.t.t.t.t.q.e.q.7.P U c $ O k k k k 0.L L L 9.L 0.A P M BXBXBX",
"BXBXV.M j v A 0.0.0.0.0.0.L 9.w.U Z P P J 7.7.q.q.t.t.t.t.t.t.t.t.t.t.t.t.t.t.t.t.t.t.t.t.t.t.t.t.t.t.t.t.q.e.e.q.7.w.U b k A v v v v v A A A A A v P j H BXBXBX",
"BXBXV.H M j P P v P P P v A L b c Z P P J 7.q.e.e.e.q.q.q.q.q.q.q.q.q.q.q.q.q.q.q.q.q.q.q.q.q.q.q.q.q.q.q.e.e.4.e.7.w.w.L A P j j j ; ; ; ; P P ; ; j M H BXBXBX",
"BXBXBXV.H H M M M H H M j v k L c U Z P J 7.q.e.e.e.e.e.e.e.e.e.e.e.e.e.e.e.e.e.e.e.e.e.e.e.e.e.e.e.e.e.e.e.y.y.e.7.w.w.L v j H V.V.H M M M M M H H H H BXBXBXBX",
"BXBXBXBXBXV.V.V.V.V.V.V.H ; A L c U Z P J 7.q.e.e.e.e.e.e.e.e.e.e.e.e.e.e.e.e.e.e.e.e.e.e.e.e.e.e.e.e.e.e.e.y.4.e.7.w.w.0.P M V.V.BXV.V.V.V.V.V.V.V.BXBXBXBXBXBX",
"BXBXBXBXBXBXBXBXBXBXBXBXBXBXA L b U Z P J 7.q.e.e.e.e.e.e.e.e.e.e.e.e.e.e.e.e.e.e.e.e.e.e.e.e.e.e.e.e.e.e.4.y.y.e.7.w.w.0.P H BXBXBXBXBXBXBXBXBXBXBXBXBXBXBXBXBX"
};
