/* XPM */
static char *_1546_6798f38516a3fb8aa24b3693f44ebb6d064116b1531ee12a889e1e5292b5e11e[] = {
/* columns rows colors chars-per-pixel */
"80 80 167 2 ",
"   c #010100",
".  c #0B0604",
"X  c #0E0906",
"o  c #120907",
"O  c #1B0A06",
"+  c #150D09",
"@  c #1E0E0B",
"#  c #1E110C",
"$  c #200F0C",
"%  c #22120D",
"&  c #28150E",
"*  c #261511",
"=  c #291710",
"-  c #251911",
";  c #2B1B13",
":  c #261A1B",
">  c #2B1D1C",
",  c #311D15",
"<  c #2F2015",
"1  c #352017",
"2  c #392317",
"3  c #362419",
"4  c #39261B",
"5  c #3D291C",
"6  c #2E2021",
"7  c #2E2429",
"8  c #322729",
"9  c #35282A",
"0  c #3C2D2A",
"q  c #362623",
"w  c #322A31",
"e  c #3B2F30",
"r  c #3E3337",
"t  c #37323C",
"y  c #39323A",
"u  c #412C1E",
"i  c #47301D",
"p  c #4C331E",
"a  c #462F20",
"s  c #482F20",
"d  c #463021",
"f  c #4D3423",
"g  c #4F3826",
"h  c #45332D",
"j  c #4D362B",
"k  c #4C382E",
"l  c #503625",
"z  c #533925",
"x  c #5A3E25",
"c  c #503729",
"v  c #553B28",
"b  c #5A3E2A",
"n  c #463837",
"m  c #4A3833",
"M  c #43393D",
"N  c #443634",
"B  c #5F4026",
"V  c #5E422C",
"C  c #644426",
"Z  c #6A4A26",
"A  c #63442E",
"S  c #6C4B2C",
"D  c #734F27",
"F  c #724F29",
"G  c #755129",
"H  c #7A542B",
"J  c #654730",
"K  c #674831",
"L  c #6B4B32",
"P  c #704F35",
"I  c #6D5233",
"U  c #725236",
"Y  c #765438",
"T  c #795639",
"R  c #775E3D",
"E  c #7B583B",
"W  c #79603D",
"Q  c #3D3945",
"!  c #453E45",
"~  c #423F4C",
"^  c #47434E",
"/  c #48434E",
"(  c #434352",
")  c #47495C",
"_  c #4B4B5C",
"`  c #494552",
"'  c #4C4E63",
"]  c #4E5165",
"[  c #51556C",
"{  c #53586F",
"}  c #545A72",
"|  c #565D78",
" . c #57607C",
".. c #59617D",
"X. c #875E2E",
"o. c #8B5F2E",
"O. c #855E32",
"+. c #8B602E",
"@. c #8C6638",
"#. c #8D6B3E",
"$. c #936632",
"%. c #976932",
"&. c #9C6C33",
"*. c #936E3E",
"=. c #A37135",
"-. c #A47439",
";. c #A87538",
":. c #B57E3A",
">. c #846B43",
",. c #8C6F43",
"<. c #8E7449",
"1. c #937648",
"2. c #947443",
"3. c #A97E43",
"4. c #B7813C",
"5. c #BD853D",
"6. c #C1873E",
"7. c #C48A3F",
"8. c #9F8552",
"9. c #AE8042",
"0. c #AE884C",
"q. c #BC8641",
"w. c #B58B4B",
"e. c #A18854",
"r. c #AC8E55",
"t. c #AF935A",
"y. c #B59659",
"u. c #B79353",
"i. c #B89D60",
"p. c #CA8E41",
"a. c #CD9345",
"s. c #C8954B",
"d. c #D59745",
"f. c #D79845",
"g. c #DB9B46",
"h. c #DB9D48",
"j. c #DBA24E",
"k. c #CCA157",
"l. c #D5AC5F",
"z. c #D7A454",
"x. c #E6A84F",
"c. c #E7A64D",
"v. c #E9AD54",
"b. c #E3B15C",
"n. c #ECB85F",
"m. c #EEB45A",
"M. c #F1B85C",
"N. c #F0B255",
"B. c #C5A864",
"V. c #CBAA64",
"C. c #D2B066",
"Z. c #D9B96B",
"A. c #E4BA66",
"S. c #ECBF67",
"D. c #E4BE6B",
"F. c #F0BD62",
"G. c #5B6582",
"H. c #5E6988",
"J. c #616E8E",
"K. c #626F90",
"L. c #647293",
"P. c #677699",
"I. c #68779B",
"U. c #6A799F",
"Y. c #6C7CA2",
"T. c #6E80A7",
"R. c None",
/* pixels */
"T.Y.L.| ' t : @ o O O @ O @ @ @ O @ O @ @ @ @ O @ @ O @ @ @ @ @ O @ @ @ @ @ @ O O O @ O @ @ O @ @ @ @ @ O O $ O $ @ O @ @ @ @ O O O O O * w ~ } K.Y.Y.Y.Y.I.Y.Y.",
"Y.I.J.| ) y : % @ O O $ $ $ @ @ $ $ $ @ @ @ $ $ $ $ @ @ $ $ @ $ @ @ $ @ @ @ @ @ $ $ $ $ @ @ $ @ @ @ @ @ $ $ $ $ $ $ @ @ @ @ $ @ $ $ O O : w ~ { H.P.I.Y.Y.L.L.P.",
"L.J.H.} ` y 6 = $ $ & % * * * * & & & & * % * % * * * * & % $ & * * * * * * * * & & & & * * * * * * * * % & & & % * * * * * * * & $ $ & : w ~ [ G.K.K.K.J.J.J.H.",
"G...} ] ( N q , , ; , , , , , ; , , ; ; > , , , ; , , , , , , , , , ; , ; , , ; , , ; , , , ; , ; , , ; , , ; , > , , , , , , ; , , & , , e ! ' [ | G.G.G.| G.G.",
"] ' _ ` ! n a q 2 u u u u u u 5 u u u u u u 5 u u u u u u u u u u u u u u u u u u u u u u u u 5 u u u u u u u u u u u u u u u 5 u 5 u u a h M ~ ) ' ' ' ' ' ' ' ",
"Q Q Q r n m j g l l f l l l l l l l l l l l l l l l l l l f l l l l l l l l l l l l f l l l l l l l l l l p l l l l l l l l l l l j f l c k m M ! Q Q Q Q Q Q Q ",
"7 7 7 0 h v V J A J A A A C A A A A A C A A J A A A A A C A A C B A A A A C A A A A A A A A J J A A A A C A A A B A A A A C A A J J J J V b j 0 8 7 7 7 7 7 7 7 ",
"% : > 3 a v J L P P P P P P P P L P P P P P U L P P P L P P P P P P P P L P P P P L P P P L P P P P P P L P P P P P P P L P P P P P P P K b l u ; * * * : : : # ",
"$ $ & , u x L P O.Y T Y Y T Y Y Y Y Y Y Y Y Y Y Y Y Y Y Y Y Y Y Y Y Y Y U T T Y Y Y Y Y Y Y Y Y Y Y Y Y Y Y Y Y Y Y Y Y Y Y Y Y Y T T Y L J f , & $ @ O O % $ $ ",
"O $ & , u b L Y O.T T T T T T T T Y T E E Y T T E Y T T T T T T T T T T T T T T T T T T T T T T T T T T T T T T T T T T O.Y T T T E T T P b l 2 & $ O O O O O O ",
"O O & , s B L Y T T T T T T T T T T T E T Y T T T T T T T T T T T T T T T T T T T T T T Y T T Y T T T T T T T T T T T Y T T T T T E T T P V f , & $ O O $ $ @ @ ",
"O $ & , u b L P Y T T Y Y Y Y Y Y Y Y Y Y Y Y Y Y Y Y Y Y Y Y Y Y Y Y Y Y Y Y Y U Y Y Y Y Y Y Y Y Y Y Y Y Y Y Y Y Y Y Y Y Y Y Y Y T T T L A s 5 & $ $ O O $ $ @ ",
"O $ & , u b J P Y Y U P P P P P P P P P P P P I L P P P I P P P P P P P P P P P P P P P P P P P P P P P P P P P P P P P L P P P U Y U P K V i 2 ; % @ @ @ # $ $ ",
"O $ & , u l A L L L L K J J K K J J K K K J J J L K K K K J K K K J K L K K K K K K K K K K K K K K K K K K K K K K K K K K K K K L L L K b i 2 & % @ # @ % % % ",
"@ $ & , u f b A A A V b b b b b V b b V b b B V b V V b V v B V b b b b b b b b b b b b b b b b b b b b b b b v b b b b b b b b V A A A V l u 1 = % $ @ $ % @ * ",
"@ $ % , 4 s c b b v c f j f f j f d f d f j f f h f f f f g d d f f s f s c s c f f f f j f f f f j j f f f f j f f f f f f f c l z b b b f 5 1 & % # $ @ @ @ @ ",
"@ $ * ; , s f c g f d i 5 u 5 5 5 0 5 5 5 5 i 5 q a 5 5 0 u 5 i 5 0 5 5 u 5 u 0 d 5 5 5 u 5 0 5 a 5 a 5 4 0 u 5 5 i 5 5 5 5 5 d a f g v g a 5 ; & $ $ $ @ $ * * ",
"@ $ % ; 4 s f l f d 0 2 4 4 3 4 4 4 4 4 4 4 4 4 4 3 4 4 3 4 4 4 2 4 4 4 4 4 2 4 4 4 4 4 4 4 2 4 3 3 3 3 4 4 2 4 4 4 3 4 q 4 4 5 4 a f f f a 5 , & $ $ $ @ @ @ @ ",
"@ $ * ; , i l l f i 5 3 1 3 3 3 4 4 4 4 4 4 3 3 3 3 1 3 3 4 4 4 4 4 4 4 4 4 3 4 4 4 4 4 4 4 3 1 < 3 1 3 4 3 4 4 4 4 3 3 3 3 3 3 4 a f l l s 5 , * * $ $ @ * @ % ",
"@ $ * ; u s z v z i 5 3 < 3 3 4 4 5 5 5 5 4 4 3 < 3 < < 3 4 4 4 4 5 5 5 4 4 5 4 5 4 5 4 4 4 4 3 3 1 1 3 4 4 4 4 4 5 5 4 3 < < 3 4 a g v l l u , * $ $ $ @ % $ % ",
"@ $ & , u l B b v f 0 3 1 4 4 5 u u u u 5 5 5 5 3 , 1 4 4 5 u u u 5 u u a u a a 0 u u a a 5 4 3 3 < 1 4 4 5 a a u i 0 5 5 3 3 3 4 d v b B z u 2 * $ @ @ $ % % % ",
"$ $ & , u z A J V g u 4 4 4 5 a d i f f d i i 5 3 3 4 4 5 a s i f f f f s i s s p i f d a a a 4 4 3 4 5 a d s s f i i i 5 5 3 3 5 f b J K b s 2 = $ @ @ @ $ @ % ",
"O $ * , s b J K A g a 4 4 4 5 d f f f g f f d 5 5 4 4 5 u a f f g f f f f f f f f f g f f s a 5 4 3 3 5 u d f f g f f d 5 5 4 3 5 g V K K V f 4 = % $ $ @ @ % % ",
"@ $ & , s B K L A v d 4 4 4 u f g l g z f f d d 5 5 4 5 a f l l l g f f l l f l l f g g f s a 5 4 3 q 5 a f g l l l g f i 5 4 4 a l A L L V f 2 ; $ @ @ % % $ % ",
"@ $ * > s b K L K v s 4 4 4 a d f l l l l f s s u u u u s f f l l l l l l l l l l l l l f s a 5 4 3 4 5 i s l l l l l s u 5 4 4 i g V L L V f 5 = @ @ @ @ % @ % ",
"@ @ = , s b K L J v a 4 4 4 a d f l l l l l f s s s a s f f f l l l l l l l l g l l l l f f u 5 4 3 4 u s i l l l l f f s 5 4 4 u l V L L V f 4 = * $ @ $ @ % % ",
"$ $ = , s b K L J v a 4 4 4 u d f l l l l f f f f f f f f f f l f g f l l l l l l l l l l s u 5 4 3 4 5 a s f l l l l f a 5 4 4 0 f A L L A f 5 = * @ @ @ % $ % ",
"O $ , , s b K L J v a 5 4 4 a d f l l l f l l f f f f f f f l l l l l l l l f l l l l f f s i u 4 4 4 u s f f l l l l i u 5 4 4 a g V L L V f 2 = $ @ @ @ % $ % ",
"$ $ = , s b K L V v d q 4 4 5 f f l l l l l l l f g l l g l l f l l f l l l l l l l f l l s u 0 5 5 5 u a f f l l l f s a 5 4 4 5 c V K L V l 4 ; $ @ @ $ % # % ",
"@ $ ; , s b K L J v d 4 4 4 a d p l f l l l l l l f l l l l l f f f l l l l l l l l l l l f p a u 5 u a f s l l l l f f u 5 4 4 a c V K L V f 4 = % @ @ @ $ $ % ",
"@ $ * , s b K L V v a 4 4 5 a f f l l l l l l f l l l l l l l l f l l f l l l f l l l l f f f a a a a s f f f l l l g d a 5 4 4 u f V L L B f 4 = @ @ $ @ % % % ",
"@ @ * > s b L L A v d 4 4 4 5 d f l l l l l l l l l l l f l f l f l l f l l l l f l l l l f s f f f s f f f l l l l f f u 4 4 4 a c V L L V f 5 = * @ @ @ % @ @ ",
"$ $ * 5 s x L L A v d 5 4 4 u f f l l l l l l l l l l l l l l f l f f l l l l l l l f f l f f f f f p f f l l l l l l s a 5 4 4 u g V L L V f 2 ; % @ $ @ % $ % ",
"O $ * , s b K L A v d q 3 4 a d f f l l l l l l l l l l l l l l l l l l l l l l f l l l f l f l l l l f f f f f l f f f a 4 3 4 u l V L L V f 5 = % @ @ @ % % % ",
"O $ = , s b K L A v d 4 4 4 u a f l l l g l l l l f l l l l l l l l l l l l f l l f f l l l l l l l l f f f f f s l s s a 4 3 4 0 l V L L V f 2 = % @ @ $ % @ % ",
"@ $ = , u b K L A v d 4 4 4 a d f f f l l l l l l l l c f l l l l l l l l l l f l f l l f l l l l f f f f s a i s s s s 0 4 4 4 a g V L K V f 5 = % @ $ @ @ % % ",
"@ % * , i b K L V v d 4 4 4 a d f l l l l l l l l l l l l f c l l l l l l l l g l f f f f l l l l f l l f f f f f f f f u 5 2 4 u l A K L A f u ; $ @ @ $ $ % % ",
"@ @ = , d b K L J v d 4 4 4 a d f l l l l l l f l l l l l l l l f l l l l l l l l f l l l l l f l l l l v b V b b x z l i u 4 4 u l V K L B f , = % @ @ $ $ @ % ",
"@ $ = , d b K L V V d 4 4 4 u d f f l l l l l c l l l l l l l l l l l l l c l l l l l l f l f f f l x V K L I I I S S B z p 5 4 q l V L L B s u ; % @ $ @ % $ $ ",
"@ $ * 4 d v K I V g d 5 4 4 u f f l l f l l l f l l g l l l l l l l l l l f l l l l l l l f f f l l A L E >.,.,.#.@.X.G Z z u 5 a c b K L V l 2 = % @ @ $ $ % % ",
"@ @ * , s b K L J v d 4 4 5 a d f l l l l l g l f l l l l l l l l l l l l l l l l g l l l f s f d B K W <.8.e.r.0.3.-.+.H C i 5 u f b K L V l 5 = $ @ @ @ % @ % ",
"@ % * 4 s b K L V v d 4 3 5 u d f l l l l l l l l l l l l l f l l l l l l l l l l l l l l l f f g V I ,.e.i.B.l.k.s.q.-.O.Z p u 5 f V K K A s 4 = * @ @ $ @ % % ",
"@ @ * , s b L L J v d 4 4 5 0 i f f l l l l l f l l l l l l g l l l f c l l l l l l f l l s f f d V I <.t.V.Z.A.A.z.a.:.%.D z u 0 f b K K V f 5 ; * @ $ @ % $ % ",
"@ @ * , s b K L V v d q 3 5 u i f l l l l l l l l l l l l l l l l l l l c f l l l l l l l c s s d V Y 1.y.C.D.S.m.x.h.p.&.G x u a j b L L A f 5 = @ @ @ @ $ $ % ",
"$ $ , , s v K L A v d 4 4 4 a a f l l l l l l l l l l l f l l l l l l l l l l l l l l l f f s s g B I 2.u.l.A.F.N.N.c.7.=.H x i 5 f b K L V l 4 = @ @ @ @ % $ # ",
"O $ & , s b K L A v d 4 3 3 a a f f l l l l l g l g f l l l l l l l l l l g l l l l l l l f j s d V I *.w.k.b.M.N.c.c.7.=.H x u 5 j b K L V f 4 = * @ @ @ % % % ",
"$ $ & , i b K L A v d 4 4 4 a a f f l l l l l l l l l l l l l l l l l l l f l l l l l l l l s s f B F #.4.s.c.N.c.c.7.7.=.H p i a s b L L B f 4 = @ @ @ % $ @ @ ",
"@ $ = , s b K L J v d 4 4 5 a s f l l l l l f l l l l l l l l f f l f l l l l l f c l l f f f f f v S +.-.7.7.7.c.7.7.4.%.D p u u j b K L V f 5 = * @ $ @ @ % * ",
"@ $ * > s b K L A v a 4 4 q a s f l l l l l l l l l l l f l l l l l l l l l l l l f l l l f f f f z Z H $.;.:.5.6.5.:.&.o.Z p 5 0 f V K K V f 5 & $ $ $ @ % $ $ ",
"@ $ = , i b K K A v a 5 4 4 a s f l l l f l l g f l l l l l f l f f f f l l l l l l l l f l f f g z A S H o.%.%.&.%.$.o.D x i 5 5 g V S K A f 5 & $ @ $ @ % % % ",
"@ $ * , s b K L A v s 4 4 4 u a f f f l z g l l l l l l l l l f l f f l l l l f l l l l l l f f p l z B C D D G G G D Z x p u 2 u g A L K V f 2 ; $ @ @ @ % @ % ",
"@ $ , , i b K L A v s 4 4 4 a s f l l l l l l l g l l l l l l l l l l f l l l l l l l l l f f l l l l l z z z z x p x p i i 2 2 u g V K L A f 5 = $ $ @ $ @ % @ ",
"@ $ * , s b K L J v d 4 4 4 a d f l l l f l f f f f f f g f f l f l l l l l l l l l l l l l f l l f f s u u 5 5 5 5 5 5 2 2 3 3 5 j A K L V s 5 = * @ @ $ $ % * ",
"@ @ * 4 s b K L A v d 4 3 4 a f f f l l l f f f s f d f f f l l l l l l l l l l l l l f l l l l l f f i u 4 4 3 3 3 3 3 < < < 5 a l V K L B l 5 = $ @ @ $ $ @ $ ",
"@ @ * , s b L L V v a 4 4 5 0 u f l l l l f f d s u s f s f f f l l l l l l l l l l l l l l l l l f p u u 5 4 4 3 5 4 4 3 3 3 3 u g V L K V l 2 = $ @ @ $ % @ @ ",
"@ @ * , s b K L J v a 4 4 5 u i f f l l l f f d u u u u s f f l l f l l c f l l l l l l l l l l f f f s u u u 5 5 5 5 5 5 3 3 3 a l V L L V f 2 = * @ @ @ % % * ",
"O $ = , s b S L V v d 4 4 5 0 i f l l l f f f u 0 4 4 a a f f l l l l l l l f l l l l l l l l f l f f f f a f s p i a a 5 4 4 4 u g V K L V f 5 = @ @ @ @ % $ % ",
"$ $ = 4 s b K L J v d 4 4 5 u i p g l l l p d u 5 4 4 5 a s s l l l l l l l l l l f l f l l l l l l f f f f f p g g f i u 5 4 4 u g V L L V f 5 ; * $ @ @ $ $ # ",
"@ $ = , a b K L V v d 4 4 4 a d f l l l f f u u 2 4 3 4 u s f f l c l l l l l l l l l p f l l l l l l l f g l l g l f f a 5 4 4 u z V L K V f 2 = * $ @ $ % % % ",
"@ @ = , u b K L J v d 4 4 4 u d f f l l l f i u 4 3 3 4 a s f l l f l l l l c f f f l l l l l l l l l g l l l l g f l p a 4 4 4 0 g V L L A f 5 = @ @ @ @ @ $ % ",
"@ @ * , d b K L J v d 5 4 4 d d f l l l f f d 5 4 4 4 4 a a s l l g l l l l l f l l f l f l l l l l l l l l l l l l f d a 5 2 4 u l V K L V l 4 = * @ @ @ % % @ ",
"@ @ * 4 i b K L V v d q 4 4 5 f f l l l l f d u 4 4 4 4 a s f f l l l l l l l l f l l f l l f l f l l f l f f l l l f f 0 5 4 4 u c V L L V f 4 ; $ @ @ $ @ @ * ",
"@ $ * , d b K S J v d 4 4 4 a d f l l l f f f 5 4 4 4 4 u s s l l l l l f l l f l f l p l f f f f l f f l l l l l l f f i 5 4 4 a f b L L V f 4 = $ @ @ @ % @ $ ",
"@ $ ; , d v L L J v d 4 4 4 u f f l l z z f d 5 5 4 4 4 a s l l l l l l l l l l l l l l l l f f f s f s f f l l l l g d a 5 4 4 a l A L L V l 4 ; $ @ @ @ % % @ ",
"@ @ = 3 s b L P V V 0 5 5 5 i g f g v g z g a u 4 4 4 5 d f g g z z l l l l l l l l l l g f f f a a d f f f l l l z l f u u 4 4 a v V L L A l 5 ; $ @ @ $ $ @ * ",
"@ $ = , s b L P V V 5 5 5 5 5 p g g z l z f f u 4 4 4 4 i d f l l l z l l l l l l l l v g f f a u u u f f f l z z l l f a 5 4 4 a z A L I A l 5 = % @ @ @ * @ * ",
"@ @ * 3 s b K L V B 0 5 3 5 5 f f z z l g f d 5 5 4 4 4 u s g l g f g g l l l f l l l l g f d 5 5 4 5 u f f l l g z g d a 5 4 4 0 g V L L A f 2 = $ @ @ @ @ * $ ",
"@ @ * , i z A K V B 5 3 3 3 5 i f p f f f d i 5 4 1 1 4 5 u f s f f p g p f p f f s p f d i i 5 4 3 4 4 u u f f f g d d u 4 3 3 5 p V A A b s 2 = * @ @ @ $ @ % ",
"@ % % , 4 s v b k 5 4 < ; < 3 4 4 5 5 5 5 5 3 < < < < < 3 4 4 5 5 5 5 5 u 5 5 5 u u 5 5 5 4 3 < < < < < 3 4 5 u 5 5 5 5 3 < < < 3 5 g g b g u , * % @ @ @ $ @ % ",
"$ % % ; , 5 5 u 5 < < # # - - ; < < < 3 < < < - # # # - ; ; ; 1 < 3 < < ; < < < , , < 3 < < - - # - # - - ; < 1 < < < < - - # # - < 3 5 u 4 2 ; * $ $ $ % % % % ",
"$ % % % - - ; ; - # # + + + + # # # # # # # # + + + + + # # # # # # # # # % # # @ # # # # # + + + X + + + # # # # # # # # + + + + # - < - - * & * $ % $ * @ % % ",
"% $ # # # # + + + X X . . X X X X X X X X X X X . . . . X X X X X X X o X X X X o X X X X X X . . . . X X X X X X X X X X X X . X X X + # # @ # % $ $ % $ $ $ # ",
"$ @ @ + o o . .                         .       . .         .       .     .   . .                           .   .     .             . . . . o O @ @ # @ $ @ @ @ ",
"@ O @ o . .                                                                                                                               . . o o @ + @ @ O @ O ",
"o o X . .                                                                                                                                     . o o o o o o o o ",
". . . . .   R.R.R.R.R.R.R.R.R.R.R.R.R.R.R.R.R.R.R.R.R.R.R.R.R.R.R.R.R.R.R.R.R.R.R.R.R.R.R.R.R.R.R.R.R.R.R.R.R.R.R.R.R.R.R.R.R.R.R.R.R.R.R.    . . . . . . . . . ",
".         R.R.R.R.R.R.R.R.R.R.R.R.R.R.R.R.R.R.R.R.R.R.R.R.R.R.R.R.R.R.R.R.R.R.R.R.R.R.R.R.R.R.R.R.R.R.R.R.R.R.R.R.R.R.R.R.R.R.R.R.R.R.R.R.R.  .   .     .       ",
"          R.R.R.R.R.R.R.R.R.R.R.R.R.R.R.R.R.R.R.R.R.R.R.R.R.R.R.R.R.R.R.R.R.R.R.R.R.R.R.R.R.R.R.R.R.R.R.R.R.R.R.R.R.R.R.R.R.R.R.R.R.R.R.R.R.                    ",
"          R.R.R.R.R.R.R.R.R.R.R.R.R.R.R.R.R.R.R.R.R.R.R.R.R.R.R.R.R.R.R.R.R.R.R.R.R.R.R.R.R.R.R.R.R.R.R.R.R.R.R.R.R.R.R.R.R.R.R.R.R.R.R.R.R.R.                  ",
"          R.R.R.R.R.R.R.R.R.R.R.R.R.R.R.R.R.R.R.R.R.R.R.R.R.R.R.R.R.R.R.R.R.R.R.R.R.R.R.R.R.R.R.R.R.R.R.R.R.R.R.R.R.R.R.R.R.R.R.R.R.R.R.R.R.R.                  "
};
