/* XPM */
static char *_6438_b32c6a6a598adc0204d95b428107b7ec8719fa4d372695b80406e5a79248e01e[] = {
/* columns rows colors chars-per-pixel */
"80 80 4 1 ",
"  c #483E35",
". c #28231E",
"X c #40372F",
"o c #322B25",
/* pixels */
"o...o......oo...o.o........o.........o..oo.........oo....o..ooo...o.............",
"o.....o...ooo...o....................o.o.o........ooo....o......................",
"..oo.o...ooo......................o..oo...o.......oo.......................ooo..",
".o......................o.......................................................",
"o..o.................ooo.ooooo....o..o....ooo....o..................o...ooo.....",
"....ooXoo.oXXooXXXo.oXo.ooXXXoooXXX..XXX.oXXo..oXo.ooXo.oXXo..oXo.oXXo.oXXo.....",
"....oXXXooXXXXoXXXooXXXooXXXXXoXXXXooX XooX XooXXXooXXXoXXXXooXXXooXXXooX X.....",
"....ooXXXXXXXXXXXXXXXXXXXXXXXXXXXXXX X XXXXXXXXXXXX XX XXXXXX X X  XXXXXXXo.....",
".....ooX           XX X          XX X    X XX   X        XX  X          Xo......",
"...o.oXX                       X                  X                    X o......",
"..ooooX   X                               X                             XXo..o..",
"..o..XXX                                  X       XX                   XXXXo....",
"oo...XXXX   X                           XX          X                   XXX.....",
".....ooXX    XX                        XX           XX                  XXo.....",
".....ooXX    XXX                       X             XX                 XXo..ooo",
"..o.oXXX      XXX                    XXX              XXX               XXoo.o..",
"....oXXXX      XX                   XX                 XX               XXXooo..",
"....ooXX        XX                 XX        X      X   XXX             XXXo....",
"......oX          XX              X     X   X X          XX              Xoo....",
"......oX          XX             XX      X                XX    X       XXo.....",
".o...oX             X           XX          X               XX          XXX.....",
"....oX          X   XXX        XXX                          XXX        XXXX..o..",
".....XXX           X XX      XXX                              X        XXXoo....",
"......XX              X       X              X                         XXo...o..",
".....ooX                                                                Xo......",
".....XXX                 X X                 X                          XXoo....",
"....oX X                                         X  X    X              X Xo....",
".....XXX                                            X                   XXo.....",
".....ooX                  X    X                     X                  XXX.....",
".....ooX                    X                         X                 XXoo....",
"....oXXX              X  X    XXX                            XX        XXo......",
"o...oXXX             XXX  X   XXX                X          XXX       XXXooo....",
"....oXXX            XX     X    X                  XX       XXX        XoXX.....",
"..o..ooX           X     X      XXX                       XXXXX        XXXoo....",
"......oX          XX             XXX                      XX  X         XXoo....",
"..o.ooXX         XX               XXX                   XXX             Xooo....",
".....X X       XXX                 XXX                  XX              XXoo....",
".....XXX       XX                    XX                XX                 o..o..",
".....oo       XX                     XXX              XX                XXX...oo",
".....ooX     XX                       XXX            XX                 XXo...oo",
"oo..oXXXX   X                          XXX         XXX                  Xoo...o.",
"ooo.oXXX    X                           XX        XXXX                  XXo.....",
"ooooooX   XX                             XXX      XX   XXX              XXo.....",
".....ooX                     X           XX       X         X           XXX.....",
".....ooXX                                        X                      XXo.....",
"....ooXX                                            X    X      X       Xo......",
"....oXXXX                                          X            X       Xoo.....",
"....oX X                               X                                XXX.....",
".....ooX                                                                X X.....",
"......oX                                     X                         XXXX.....",
".oo..oXX  X                              XXX      XX                    Xo......",
"o.o.oXXXX XX                            XXX  X    XX                    Xoo.....",
"oo..oXXX    X                       X   XX          X                   XXX...oo",
"....oX      XX                        XXX           XXX                 XXX...oo",
"....oXXX     XX          X            XX  X      X   XXX                XXo...oo",
"..ooo.oX      XXX                   XXXX             XXXXX             XXo...o..",
"..o..ooXX      XXX        X         XX       X    X   XXXX       X      Xo.ooo..",
".....XXX        XX        X        XX   X     X    X     XX            XXXXoo...",
".....XXXX        XX               XX                     XXX            XXXooo..",
".....oXX          XX  X          XXX          X           XX           XXooo.o..",
"......oX          X XX          XXX                X       XXX          Xo.o....",
".....ooX            XXXX      XXXXX     X                   XX         XXooo....",
"....oXXX             XXX      XX                              XX      XXXXoo...o",
".....XXX              X       X                               X        XXXXo....",
"o....oXX                                                                XXoo....",
"o.o.o.oX              X             X                                   Xo...o..",
".o...ooX                           X   X               X                 oo.....",
".....oXX                  X                            X                 XXo....",
".....XXX                                                                XXX.....",
"....ooXX                                                               XXXo.....",
"......oX                                                     X         XXo.....o",
".....oXX     X       XXX      XXX                 X        XXXX       XXXoo.....",
"....oXX XXXXXXXX   XXXXXX XXXoXXXXXX XXXXXXXXXXXXXXXXX  X XXXXXX XXXXXXXXXX.....",
"....oX  XoXXXXoXXXXoXXXooX XooXXXoXX XooXXXooXXXooXXXXXooXXXoo XXooXXXooXXX.....",
"....ooXXoooXX.ooXXooXXo.oXXXooXXXooXXX..XXXo.oXXoooXXXo..XXo.oXXo.oXXo..XXo.....",
".....o....ooo..oooo...o..ooo.o...ooooo...o....oooooooo..ooo...oo.o..o......oo..o",
"...............ooo.................ooo..................oo..................o...",
"..........o....oo....................o.................oo..........o........oo..",
"..............o............o........oooo.............ooo...........o............",
".............oo....................o..oo.....o.......oo..oo........o..........oo"
};
