/* XPM */
static char *_726_ddd7d5e78e32515c34331db5e69eb73097182d215e8d8dd7d663a43935f32378[] = {
/* columns rows colors chars-per-pixel */
"16 24 29 1 ",
"  c #000200",
". c #000300",
"X c #010300",
"o c #000301",
"O c #641232",
"+ c #651232",
"@ c #641233",
"# c #7B723A",
"$ c #7A723B",
"% c #7B723B",
"& c #7B733B",
"* c #C82464",
"= c #C92464",
"- c #C92564",
"; c #C92465",
": c #F6E476",
"> c #F7E476",
", c #F7E477",
"< c #606C80",
"1 c #606C81",
"2 c #616C81",
"3 c #F6B69E",
"4 c #F7B69E",
"5 c #F7B79E",
"6 c #F7B69F",
"7 c #FFFEFF",
"8 c #FEFFFF",
"9 c white",
"0 c None",
/* pixels */
"0000000000000000",
"0000000000000000",
"0000000000000000",
"0000000000000000",
"0000000000000000",
"0000000000000000",
"0000000000000000",
"0000000000000000",
"000.X... o..o000",
"000X 4.46X4..000",
"000.64444444 000",
"00.<21<21<11o000",
"0.115=*=====.000",
"0.1 6=79=-;9.000",
"0. o4-98-;=9.000",
"000.4;+O==-@4.00",
"000.644445434o00",
"000.444346946X00",
"000X%%$44444.000",
"000 ,>>>:>>:.000",
"000.>>,>>>:>.000",
"000.&#X.o.%%X000",
"000.%X000 %.0000",
"000o.0000..00000"
};
