/* XPM */
static char *_0601_da37aed808b122ccf683e989480d20260cb9e615a85a7246c0b25083bab4cc8f[] = {
/* columns rows colors chars-per-pixel */
"80 80 32 1 ",
"  c black",
". c #040703",
"X c #0B0E09",
"o c #0C1A09",
"O c #1A1714",
"+ c #291F18",
"@ c #0E260C",
"# c #0A300E",
"$ c #172B11",
"% c #0E3D13",
"& c #1A3814",
"* c #2E2C21",
"= c #363939",
"- c #473021",
"; c #134717",
": c #1B531C",
"> c #224419",
", c #2A541E",
"< c #256222",
"1 c #316926",
"2 c #327329",
"3 c #357B2C",
"4 c #3B812E",
"5 c #3F8731",
"6 c #438D33",
"7 c #489235",
"8 c #4C9737",
"9 c #509C39",
"0 c #519F3A",
"q c #53A03B",
"w c #55A33C",
"e c None",
/* pixels */
"eeeeeeeeeeeeeeeeeeeeeeeeeeeeeeeeeeeeeeeeeeeeeeeeeeeeeeeeeeeeeeeeeeeeeeeeeeeeeeee",
"eeeeeeeeeeeeeeeeeeeeeeeeeeeeeeeeeeeeeeeeeeeeeeeeeeeeeeeeeeeeeeeeeeeeeeeeeeeeeeee",
"eeeeeeeeeeeeeeeeeeeeeeeeeeeeeeeeeeeeeeeeeeeeeeeeeeeeeeeeeeeeeeeeeeeeeeeeeeeeeeee",
"eeeeeeeeeeeeeeeeeeeeeeeeeeeeeeeeeeeeeeeeeeeeeeeeeeeeeeeeeeeeeeeeeeeeeeeeeeeeeeee",
"eeeeeeeeeeeeeeeeeeeeeeeeeeeeeeeeeeeeeeeeeeeeeeeeeeeeeeeeeeeeeeeeeeeeeeeeeeeeeeee",
"eeeeeeeeeeeeeeeeeeeeeeeeeeeeeeeeeeeeeeeeeeeeeeeeeeeeeeeeeeeeeeeeeeeeeeeeeeeeeeee",
"eeeeeeeeeeeeeeeeeeeeeeeeeeeeeeeeeeeeeeeeeeeeeeeeeeeeeeeeeeeeeeeeeeeeeeeeeeeeeeee",
"eeeeeeeeeeeeeeeeeeeeeeeeeeeeeeeeeeeeeeeeeeeeeeeeeeeeeeeeeeeeeeeeeeeeeeeeeeeeeeee",
"eeeeeeeeeeeeeeeeeeeeeeeeeeeeeeeeeeeeeeeeeeeeeeeeeeeeeeeeeeeeeeeeeeeeeeeeeeeeeeee",
"eeeeeeeeeeeeeeeeeeeeeeeeeeeeeeeeeeeeeeeeeeeeeeeeeeeeeeeeeeeeeeeeeeeeeeeeeeeeeeee",
"eeeeeeeeeeeeeeeeeeeeeeeeeeeeeeeeeeeeeeeeeeeeeeeeeeeeeeeeeeeeeeeeeeeeeeeeeeeeeeee",
"eeeeeeeeeeeeeeeeeeeeeeeeeeeeeeeeeeeeeeeeeeeeeeeeeeeeeeeeeeeeeeeeeeeeeeeeeeeeeeee",
"eeeeeeeeeeeeeeeeeeeeeeeeeeeeeeeeeeeeeeeeeeeeeeeeeeeeeeeeeeeeeeeeeeeeeeeeeeeeeeee",
"eeeeeeeeeeeeeeeeeeeeeeeeeeeeeeeeeeeeeeeeeeeeeeeeeeeeeeeeeeeeeeeeeeeeeeeeeeeeeeee",
"eeeeeeeeeeeeeeeeeeeeeeeeeeeeeeeeeeeeeeeeeeeeeeeeeeeeeeeeeeeeeeeeeeeeeeeeeeeeeeee",
"eeeeeeeeeeeeeeeeeeeeeeeeeeeeeeeeeeeeeeeeeeeeeeeeeeeeeeeeeeeeeeeeeeeeeeeeeeeeeeee",
"eeeeeeeeeeeeeeeeeeeeeeeeeeeeeeeeeeeeeeeeeeeeeeeeeeeeeeeeeeeeeeeeeeeeeeeeeeeeeeee",
"eeeeeeeeeeeeeeeeeeeeeeeeeeeeeeeeeeeeeeeeeee$>>>oeeeeeeeeeeeeeeeeeeeeeeeeeeeeeeee",
"eeeeeeeeeeeeeeeeeeeeeeeeeeeee1111eeeeeeeee&,,,,>@eeeeeeeeeeeeeeeeeeeeeeeeeeeeeee",
"eeeeeeeeeeeeeeeeeeeeeeeeeeeee0www6>eeeeeee1211<1>eeeeeeeeeeeeeeeeeeeeeeeeeeeeeee",
"eeeeeeeeeeeeeeeeeeeeeeeeeeee,wqqqq9>ee&>@o474431>X@&@eeeeeeeeeeeeeeeeeeeeeeeeeee",
"eeeeeeeeeeeeeeeeeeeeeeeeeeee,wqqqqq8,o49,o5q999,o&11,@eeeeeeeeeeeeeeeeeeeeeeeeee",
"eeeeeeeeeeeeeeeeeeeeeeeee>11360qqqqw629w4,7wqqw414762,eeeeeeeeeeeeeeeeeeeeeeeeee",
"eeeeeeeeeeeeeeeeeeeeeeee>4ww760qqqqqqwqw869qqqqwwwq95,oeeeeeeeeeeeeeeeeeeeeeeeee",
"eeeeeeeeeeeeeeeeeeeeeeee<wqqq0qqqqqqqqqqq0qqqqqqqqqq5&eeeeeeeeeeeeeeeeeeeeeeeeee",
"eeeeeeeeeeeeeeeeeeeee>>e,wqqqqqqqqqqqqqqqqqqqqqqqqq6,Xeeeeeeeeeeeeeeeeeeeeeeeeee",
"eeeeeeeeeeeeeeeeeeeee,1e3wqqqqqqqqqqqqqqqqqqqqqqqqq73,,eeeeeeeeeeeeeeeeeeeeeeeee",
"eeeeeeeeeeeeeeeeeeeee,,38qqqqqqqqqqqqqqqqqqqqqqqqqqwww91eeeeeeeeeeeeeeeeeeeeeeee",
"eeeeeeeeeeeeeeeeeeeeeee38qqqqqqqqqqqqqqqqqqqqqqqqqqqqqq82eeeeeeeeeeeeeeeeeeeeeee",
"eeeeeeeeeeeeeeeeeeeeee,60qqqqqqqqqqqqqqqqqqqqqqqqqqqqqqq8eeeeeeeeeeeeeeeeeeeeeee",
"eeeeeeeeeeeeeeeeeeeeee18wqqqqqqqqqqqqqqqqqqqqqqqqqq87qqqq9eeeeeeeeeeeeeeeeeeeeee",
"eeeeeeeeeeeeeeeeeeeeee2999qqqqqqqqqqqqqqqqqqqqqqqqq7580qw0eeeeeeeeeeeeeeeeeeeeee",
"eeeeeeeeeeeeeeeeeeeeee59659qqqqqqqqqqqqqqqqqq0qqqqqq847008eeeeeeeeeeeeeeeeeeeeee",
"eeeeeeeeeeeeeeeeeeeee18q5359qqqqqqqqqqqqqqqq859wqqqw7:;<3eeeeeeeeeeeeeeeeeeeeeee",
"eeeeeeeeeeeeeeeeeeeee4w86569qqqqqqqqqqqqqqqq95348ww951<:eeeeeeeeeeeeeeeeeeeeeeee",
"eeeeeeeeeeeeeeeeeeeee1526wqqqqqqqqqqqqqqqqqqw9<<368540w1eeeeeeeeeeeeeeeeeeeeeeee",
"eeeeeeeeeeeeeeeeeeeeeeee4wqqq0qqqqqqqqqqqqqqqq92;:2349q93eeeeeeeeeeeeeeeeeeeeeee",
"eeeeeeeeeeeeeeeeeeeeeee18qqq760qqqqqqqqqqqqqqqq73<258qw92eeeeeeeeeeeeeeeeeeeeeee",
"eeeeeeeeeeeeeeeeeeeeeee6wqqw640qqqq88qqqqqqq970w963577752;eeeeeeeeeeeeeeeeeeeeee",
"eeeeeeeeeeeeeeeeeeeeeee6wqq9650qqq0559qqqqqq8480q043322233eeeeeeeeeeeeeeeeeeeeee",
"eeeeeeeeeeeeeeeeeeeeee28qq9569qqqqq9659qqqqq0857q0432:;<33eeeeeeeeeeeeeeeeeeeeee",
"eeeeeeeeeeeeeeeeeeeee17655536w067wqw749qqqqqw04455775<;;::@eeeeeeeeeeeeeeeeeeeee",
"eeeeeeeeeeeeeeeeeeeee396543358066777549qqqqq9743338w95<;;%oeeeeeeeeeeeeeeeeeeeee",
"eeeeeeeeeeeeeeeeeeeee10qq843350q7333348qqq9973234480q05<;%oeeeeeeeeeeeeeeeeeeeee",
"eeeeeeeeeeeeeeeeeeeee,0wq08459qq07335857w95442:29856q05:##Xeeeeeeeeeeeeeeeeeeeee",
"eeeeeeeeeeeeeeeeeeeee&526w046wqqw94580757071:<<5ww78964<#@Xeeeeeeeeeeeeeeeeeeeee",
"eeeeeeeeeeeeeeeeeeeee$2:16746wqq9627wqq66qq3:;267590732<%#oeeeeeeeeeeeeeeeeeeeee",
"eeeeeeeeeeeeeeeeeeeee&33<:33699061:4wqq99qqq3#<31:6632:;%#oeeeeeeeeeeeeeeeeeeeee",
"eeeeeeeeeeeeeeeeeeeeee33:;331<451;;27qq66wq71#%;:141::;;%#oeeeeeeeeeeeeeeeeeeeee",
"eeeeeeeeeeeeeeeeeeeeee3<%%<<<<33<%;156642265<%@#:33:%;;;%#Oeeeeeeeeeeeeeeeeeeeee",
"eeeeeeeeeeeeeeeeeeeeee<;##%%<333<:;<2333<;<2<;##;12:#%%%%$$eeeeeeeeeeeeeeeeeeeee",
"eeeeeeeeeeeeeeeeeeeeeee%#@#%<33331;;<333<;;;;;#@#;;%@###$=eeeeeeeeeeeeeeeeeeeeee",
"eeeeeeeeeeeeeeeeeeeeeeeeO$#%::;142;;%;:::;;;%#$+$##@O====eeeeeeeeeeeeeeeeeeeeeee",
"eeeeeeeeeeeeeeeeeeeeeeeee**%%##:<<;%#$#%#%%%#o+--**++===eeeeeeeeeeeeeeeeeeeeeeee",
"eeeeeeeeeeeeeeeeeeeeeeeeee-$@@@%%%%&+*$$@@$$$++-----+Oeeeeeeeeeeeeeeeeeeeeeeeeee",
"eeeeeeeeeeeeeeeeeeeeeeeeeeeeeO+$###*---*+O====++----eeeeeeeeeeeeeeeeeeeeeeeeeeee",
"eeeeeeeeeeeeeeeeeeeeeeeeeeeeeeeeXXXO++OOO+====OO++eeeeeeeeeeeeeeeeeeeeeeeeeeeeee",
"eeeeeeeeeeeeeeeeeeeeeeeeeeeeeeeeeeee..e eOOOOeeeeeeeeeeeeeeeeeeeeeeeeeeeeeeeeeee",
"eeeeeeeeeeeeeeeeeeeeeeeeeeeeeeeeeeeeeeeeeeeeeeeeeeeeeeeeeeeeeeeeeeeeeeeeeeeeeeee",
"eeeeeeeeeeeeeeeeeeeeeeeeeeeeeeeeeeeeeeeeeeeeeeeeeeeeeeeeeeeeeeeeeeeeeeeeeeeeeeee",
"eeeeeeeeeeeeeeeeeeeeeeeeeeeeeeeeeeeeeeeeeeeeeeeeeeeeeeeeeeeeeeeeeeeeeeeeeeeeeeee",
"eeeeeeeeeeeeeeeeeeeeeeeeeeeeeeeeeeeeeeeeeeeeeeeeeeeeeeeeeeeeeeeeeeeeeeeeeeeeeeee",
"eeeeeeeeeeeeeeeeeeeeeeeeeeeeeeeeeeeeeeeeeeeeeeeeeeeeeeeeeeeeeeeeeeeeeeeeeeeeeeee",
"eeeeeeeeeeeeeeeeeeeeeeeeeeeeeeeeeeeeeeeeeeeeeeeeeeeeeeeeeeeeeeeeeeeeeeeeeeeeeeee",
"eeeeeeeeeeeeeeeeeeeeeeeeeeeeeeeeeeeeeeeeeeeeeeeeeeeeeeeeeeeeeeeeeeeeeeeeeeeeeeee",
"eeeeeeeeeeeeeeeeeeeeeeeeeeeeeeeeeeeeeeeeeeeeeeeeeeeeeeeeeeeeeeeeeeeeeeeeeeeeeeee",
"eeeeeeeeeeeeeeeeeeeeeeeeeeeeeeeeeeeeeeeeeeeeeeeeeeeeeeeeeeeeeeeeeeeeeeeeeeeeeeee",
"eeeeeeeeeeeeeeeeeeeeeeeeeeeeeeeeeeeeeeeeeeeeeeeeeeeeeeeeeeeeeeeeeeeeeeeeeeeeeeee",
"eeeeeeeeeeeeeeeeeeeeeeeeeeeeeeeeeeeeeeeeeeeeeeeeeeeeeeeeeeeeeeeeeeeeeeeeeeeeeeee",
"eeeeeeeeeeeeeeeeeeeeeeeeeeeeeeeeeeeeeeeeeeeeeeeeeeeeeeeeeeeeeeeeeeeeeeeeeeeeeeee",
"eeeeeeeeeeeeeeeeeeeeeeeeeeeeeeeeeeeeeeeeeeeeeeeeeeeeeeeeeeeeeeeeeeeeeeeeeeeeeeee",
"eeeeeeeeeeeeeeeeeeeeeeeeeeeeeeeeeeeeeeeeeeeeeeeeeeeeeeeeeeeeeeeeeeeeeeeeeeeeeeee",
"eeeeeeeeeeeeeeeeeeeeeeeeeeeeeeeeeeeeeeeeeeeeeeeeeeeeeeeeeeeeeeeeeeeeeeeeeeeeeeee",
"eeeeeeeeeeeeeeeeeeeeeeeeeeeeeeeeeeeeeeeeeeeeeeeeeeeeeeeeeeeeeeeeeeeeeeeeeeeeeeee",
"eeeeeeeeeeeeeeeeeeeeeeeeeeeeeeeeeeeeeeeeeeeeeeeeeeeeeeeeeeeeeeeeeeeeeeeeeeeeeeee",
"eeeeeeeeeeeeeeeeeeeeeeeeeeeeeeeeeeeeeeeeeeeeeeeeeeeeeeeeeeeeeeeeeeeeeeeeeeeeeeee",
"eeeeeeeeeeeeeeeeeeeeeeeeeeeeeeeeeeeeeeeeeeeeeeeeeeeeeeeeeeeeeeeeeeeeeeeeeeeeeeee",
"eeeeeeeeeeeeeeeeeeeeeeeeeeeeeeeeeeeeeeeeeeeeeeeeeeeeeeeeeeeeeeeeeeeeeeeeeeeeeeee",
"eeeeeeeeeeeeeeeeeeeeeeeeeeeeeeeeeeeeeeeeeeeeeeeeeeeeeeeeeeeeeeeeeeeeeeeeeeeeeeee",
"eeeeeeeeeeeeeeeeeeeeeeeeeeeeeeeeeeeeeeeeeeeeeeeeeeeeeeeeeeeeeeeeeeeeeeeeeeeeeeee"
};
