/* XPM */
static char *_629_548cf46c01aed0cc3fc6c681765297766333a88f171cc31b049ea8bf0f3a2e60[] = {
/* columns rows colors chars-per-pixel */
"80 80 206 2 ",
"   c #1D0400",
".  c #1D0B02",
"X  c #140608",
"o  c #1C0D0B",
"O  c #170808",
"+  c #1F110D",
"@  c #220D02",
"#  c #271200",
"$  c #2B1702",
"%  c #23130D",
"&  c #28160D",
"*  c #2C190D",
"=  c #321D0D",
"-  c #231513",
";  c #281710",
":  c #261916",
">  c #2D1C13",
",  c #271B19",
"<  c #291C1B",
"1  c #311E14",
"2  c #311F1A",
"3  c #38210E",
"4  c #2D211E",
"5  c #362113",
"6  c #3D2615",
"7  c #31221C",
"8  c #382318",
"9  c #3D281E",
"0  c #0E152C",
"q  c #151C33",
"w  c #291F22",
"e  c #1E2539",
"r  c #2B2323",
"t  c #2B232B",
"y  c #2F292A",
"u  c #322C2D",
"i  c #352726",
"p  c #2D2932",
"a  c #272838",
"s  c #332C33",
"d  c #392F33",
"f  c #342F3B",
"g  c #363233",
"h  c #383336",
"j  c #3B353C",
"k  c #3D3B3D",
"l  c #35313C",
"z  c #4B2E15",
"x  c #402A1C",
"c  c #462D18",
"v  c #4D3016",
"b  c #4D321C",
"n  c #50341D",
"m  c #59391C",
"M  c #43280D",
"N  c #4B3222",
"B  c #4F3729",
"V  c #4D392D",
"C  c #44312A",
"Z  c #503624",
"A  c #5C3D22",
"S  c #503728",
"D  c #52392B",
"F  c #593D2A",
"G  c #4B3B34",
"H  c #493E3B",
"J  c #45373B",
"K  c #523E3B",
"L  c #523C35",
"P  c #422E25",
"I  c #5C412D",
"U  c #5B4130",
"Y  c #56423E",
"T  c #4D403F",
"R  c #654326",
"E  c #62442D",
"W  c #6C4A2C",
"Q  c #714D2F",
"!  c #6B4C34",
"~  c #644733",
"^  c #734F30",
"/  c #735135",
"(  c #755338",
")  c #6F5039",
"_  c #2C344A",
"`  c #363544",
"'  c #3E3C43",
"]  c #3C3C4C",
"[  c #383746",
"{  c #383E54",
"}  c #292E40",
"|  c #413B42",
" . c #413E4B",
".. c #4A3F46",
"X. c #39425B",
"o. c #3F4048",
"O. c #3D4761",
"+. c #434345",
"@. c #44424C",
"#. c #4C444A",
"$. c #4B4347",
"%. c #544344",
"&. c #5E4A42",
"*. c #54454A",
"=. c #574849",
"-. c #434252",
";. c #464952",
":. c #43465A",
">. c #45495D",
",. c #4A4B5C",
"<. c #4A4955",
"1. c #564A52",
"2. c #534E5C",
"3. c #584D55",
"4. c #4E505F",
"5. c #5C525C",
"6. c #634E44",
"7. c #615049",
"8. c #6C5448",
"9. c #735B4D",
"0. c #67595B",
"q. c #785F51",
"w. c #7B6152",
"e. c #444B63",
"r. c #4A4E63",
"t. c #474F68",
"y. c #4D5165",
"u. c #47526D",
"i. c #4C536D",
"p. c #5A5566",
"a. c #52556A",
"s. c #5B5769",
"d. c #54586D",
"f. c #595666",
"g. c #4B5672",
"h. c #4D5875",
"j. c #4E5978",
"k. c #525B74",
"l. c #5B5D74",
"z. c #545E7A",
"x. c #545B75",
"c. c #615F70",
"v. c #685E60",
"b. c #5E6175",
"n. c #55617E",
"m. c #5D627B",
"M. c #726A6A",
"N. c #7E6E69",
"B. c #766663",
"V. c #666876",
"C. c #76727A",
"Z. c #736B70",
"A. c #86756E",
"S. c #817A7E",
"D. c #576382",
"F. c #5A6584",
"G. c #5E6A89",
"H. c #5C6887",
"J. c #616783",
"K. c #626984",
"L. c #626C8C",
"P. c #686F85",
"I. c #6A728A",
"U. c #7E7E8C",
"Y. c #737585",
"T. c #626F91",
"R. c #657294",
"E. c #6E7A97",
"W. c #677598",
"Q. c #68779A",
"!. c #6B7897",
"~. c #767D93",
"^. c #717E9E",
"/. c #7D848E",
"(. c #7B8499",
"). c #7E8AA5",
"_. c #878689",
"`. c #888386",
"'. c #948B8A",
"]. c #848A9C",
"[. c #868994",
"{. c #98979D",
"}. c #8F919A",
"|. c #8D94A5",
" X c #8E98AE",
".X c #8B94A8",
"XX c #949AA6",
"oX c #9A9CA2",
"OX c #959BA8",
"+X c #8F9BB1",
"@X c #858DA1",
"#X c #A19FA2",
"$X c #9DA2AD",
"%X c #9BA3B3",
"&X c #9EA9BB",
"*X c #A5ABB4",
"=X c #ABAEB5",
"-X c #A4AAB6",
";X c #AAB1BC",
":X c #ABB4C2",
">X c #B1B7C0",
",X c #B3B9C2",
"<X c #B6BEC8",
"1X c #B7C0CB",
"2X c #B8C1CB",
"3X c None",
/* pixels */
"3X3X3X3X3X3X3X3X3X3X3X3X3X3X3X3X3X3X3X3X3X3X3X3X3X3X3X3X3X3X3X3X3X3X3X3X3X3X3X3X3X3X3X3X3X3X3X3X3X3X3X3X3X3X3X3X3X3X3X3X3X3X3X3X3X3X3X3X3X3X3X3X3X3X3X3X3X3X3X3X",
"3X3X3X3X3X3X3X3X3X3X3X3X3X3X3X3X3X3X3X3X3X3X3X3X3X3X3X3X3X3X3X3X3X3X3X3X3X3X3X3X3X3X3X3X3X3X3X3X3X3X3X3X3X3X3X3X3X3X3X3X3X3X3X3X3X3X3X3X3X3X3X3X3X3X3X3X3X3X3X3X",
"3X3X3X3X3X3X3X3X3X3X3X3X3X3X3X3X3X3X3X3X3X3X3X3X3X3X3X3X3X3X3X3X3X3X3X3X3X3X3X3X3X3X3X3X3X3X3X3X3X3X3X3X3X3X3X3X3X3X3X3X3X3X3X3X3X3X3X3X3X3X3X3X3X3X3X3X3X3X3X3X",
"3X3X3X3X3X3X3X3X3X3X3X3X3X3X3X3X3X3X3X3X3X3X3X3X3X3X3X3X3X3X3X3X3X3X3X3X3X3X3X3X3X3X3X3X3X3X3X3X3X3X3X3X3X3X3X3X3X3X3X3X3X3X3X3X3X3X3X3X3X3X3X3X3X3X3X3X3X3X3X3X",
"3X3X3X3X3X3X3X3X3X3X3X3X3X3X3X3X3X3X3X3X3X3X3X3X3X3X3X3X3X3X3X3X3X3X3X3X3X3X3X3X3X3X3X3X3X3X3X3X3X3X3X3X3X3X3X3X3X3X3X3X3X3X3X3X3X3X3X3X3X3X3X3X3X3X3X3X3X3X3X3X",
"3X3X3X3X3X3X3X3X3X3X3X3Xo . . .           @ O @ . . . % + o o o + + o o % o + o o o o % + o - @ + o o o o o .                       . % 3X3X3X3X3X3X3X3X3X3X3X3X",
"3X3X3X3X3X3X3X3X3X3X3X- % % % - - - , - , - - - - - - + - % % % - % % + % % - % % % % - - + % % % % % % % % - - - - : - - - : - - - - % % 3X3X3X3X3X3X3X3X3X3X3X",
"3X3X3X3X3X3X3X3X3X3X& ; : < w t t p p p a p p t w w < , ; & % ; ; ; ; ; ; ; ; ; ; ; ; ; ; ; ; * ; ; ; ; : < w t p p p a p p p t w w < : ; & 3X3X3X3X3X3X3X3X3X3X",
"3X3X3X3X3X3X3X3X3X* > 1 2 i s f ` [ [ ] [ [ [ [ ` p i 2 1 1 1 1 > > > 1 1 1 1 1 1 1 1 1 1 1 1 1 > > > 2 2 t s ` ` [ [ ] ] [ [ ` f s i 2 ; ; * 3X3X3X3X3X3X3X3X3X",
"3X3X3X3X3X3X3X3X* = 1 8 i d [  .:.:.e.e.e.e.e. . .| d i 9 1 1 1 8 8 8 8 2 2 6 2 8 1 8 8 1 2 9 1 8 8 8 8 i d |  .{ e.e.e.e.e.e.{ ] ' s i 2 1 $ * 3X3X3X3X3X3X3X3X",
"3X3X3X3X3X3X3X; > = 6 9 C .. .r.i.i.x.j.D.D.u.r.>. .| C x x x x 9 9 x x x x x x x x x x x x x x 6 c 9 x C |  .r.i.h.x.j.x.h.g.i.>.-.J d 9 1 = * & 3X3X3X3X3X3X3X",
"3X3X3X3X3X3X- ; * = M P J ..2.s.D.J.J.L.H.H.D.D.l.2...L N z c b N N N N N N N N N N N N P N N N N c c N L ..2.d.l.H.H.L.L.H.J.z.a.2...G x 6 = * - % 3X3X3X3X3X3X",
"3X3X3X3X3X+ + ; = = x N K =.s.V.I.!.E.E.E.!.!.I.c.c.1.K D Z n Z Z Z Z S Z S Z S Z S S S Z S S S Z Z n S K 1.p.c.P.R.Q.Q.E.Q.R.I.V.p.1.G N 6 3 * & + o 3X3X3X3X3X",
"3X3X3X3X3X+ - ; 1 6 z D &.5.c.Y.~.(.).).).).(.~.Y.c.0.&.F A A F F F F F F F F F F F F F F F F F A A A F &.0.Z.Y.~.).@X).@X).(.~.Y.V.5.Y S c 3 > ; + o 3X3X3X3X3X",
"3X3X3X3X3X+ % * 6 M b F 8.0.C.U.]..X X+X+X X.X].U.Z.0.8.~ F R I E E E E E E E E I I E E I E E E E A F ~ 8.v.C.U.]..X X+X+X X.X@X/.Z.v.&.I c M 5 * + o 3X3X3X3X3X",
"3X3X3X3X3X@ % 1 1 c n E 8.B.S.}.|.$X&X&X&X&X$X|.[.S.A.8.~ W R W ~ ! ~ ! ~ ! ~ ! ! ! ! W ! W ~ ! W W E ! 8.B.S.[.XX$X&X&X-X%X%XXX}.S.B.8.I n M 5 ; + o 3X3X3X3X3X",
"3X3X3X3X3Xo % 1 6 c A ~ 9.N.`.{.#X-X:X:X:X:X-X$X{.`.A.9.^ W Q Q ) ! Q ) ) Q ! Q ! ! ! ) ^ ^ ^ ^ ! W Q ) 8.A.A.{.#X-X:X:X:X:X&X$X}.`.A.8.~ Z z 5 > % O 3X3X3X3X3X",
"3X3X3X3X3Xo % 1 6 z m ~ 9.A.'.oX*X:X<X<X<X,X;X-X#XA.A.9.( Q Q / ( ) ) Q ) ( ( ( ( ( ( ^ ( ( ( ( ^ Q Q 8.^ A.'.{.*X>X,X<X,X,X>X*XoX'.A.9.! m z 6 > % O 3X3X3X3X3X",
"3X3X3X3X3Xo - 1 6 v A ! q.A.'.#X=X,X,X<X<X<X>X=X#X'.A.( ( ^ ^ / ( ( ( ( ( ( ( ^ ( ( ( ( ( ( ( ( ( ^ Q ( A.A.'.#X=X>X,X2X1X,X>X=X#X'.A.w.! A b 6 > + O 3X3X3X3X3X",
"3X3X3X3X3XO % 1 x v A ! q.A.'.#X=X,X<X<X<X<X,X=X#X'.A.A.( / ^ ( ( ( ( ( ( ( ( ( ( ( ( ( ( ( ( ( ( ^ ^ ( A.A.'.#X=X>X1X2X2X<X>X=X#X'.A.w.! A z 6 > % O 3X3X3X3X3X",
"3X3X3X3X3Xo % 1 6 z A ! A.A.'.#X=X,X<X2X<X<X<X=X#X'.A.( ( ^ ^ ( ( ( ( ( ( ( ( ( ( ( ( ( ( ( ( ^ ( ^ ( ( A.A.'.#X=X,X<X2X2X1X>X=X#X'.A.w.! A z 6 1 % X 3X3X3X3X3X",
"3X3X3X3X3Xo - > x v A ! 9.A.'.#X=X,X<X2X2X<X,X=X#X'.A.A.( ^ ^ ^ ( ( ( ( ( ^ ( ( ( ^ ( ( ( ( ( ( ^ ^ ^ ( A.A.'.#X=X,X<X2X2X1X>X=X#X'.A.w.! A v 6 > % X 3X3X3X3X3X",
"3X3X3X3X3XO % 1 x v A ! 9.A.'.#X=X,X<X2X<X<X,X=X#X'.A.A.( ( ^ ( ^ ( ( ( Q ^ ( ( ( ( ( ( ( ( ( ( ( ^ ^ ( ( A.A.#X=X,X<X1X1X<X,X=X#X'.A.q.! A z 6 > % X 3X3X3X3X3X",
"3X3X3X3X3Xo % 1 M v m W q.A.'.#X=X,X<X2X<X<X,X=X#XA.A.A.( ^ ^ ( ( ( ( ( R A.^ ( ( ( ( ( ( ( ( ( ( ^ ^ ( A.A.A.#X=X,X<X2X1X1X,X=XoX'.A.q.! A z 6 > % X 3X3X3X3X3X",
"3X3X3X3X3Xo % > 6 v A ! q.A.'.#X=X,X<X2X2X<X,X=X#X'.A.A.( ( ^ ^ ( ( Q ( ( ( ( ( ( ( ^ ( ( ( ^ ( ( ^ ^ ( A.A.'.#X=X,X<X2X2X<X,X=X#X'.A.q.! A b 6 > + X 3X3X3X3X3X",
"3X3X3X3X3Xo - 1 6 v A ! q.A.'.#X=X,X<X2X2X<X>X=X#X'.A.( ( ^ ^ ( ( ( ( ( ( ( ( ( ( ( ( ( ( ( ( ( ^ ^ ^ ^ A.A.'.#X=X,X<X2X<X<X,X=X#X'.A.w.! A z 6 > % X 3X3X3X3X3X",
"3X3X3X3X3Xo % 2 6 z A ! q.A.'.#X=X,X<X2X2X<X,X=X#X'.A.A.( ^ ^ ( ( ( ( ( ( ( ( ( ( ( ( ( ( ( ( ( ( ^ ^ ^ ( A.'.#X=X>X<X1X<X<X,X=X#X'.A.w.! A z 6 > % X 3X3X3X3X3X",
"3X3X3X3X3XO % 1 6 b A ! w.A.'.#X=X,X<X2X2X2X;X=X#X'.A.( ( ^ ^ ( ( ( ( ( ( ( ^ ( ( ( ( ( ( ( ( ( ^ ^ R Q A.A.A.#X=X>X<X1X2X<X,X=XoX'.A.w.! F z 6 > o X 3X3X3X3X3X",
"3X3X3X3X3Xo % 1 6 b A ! q.A.'.#X=X,X<X2X2X<X,X=X#X'.A.( ^ ^ ^ ^ ( ( ( ( ( ( ( ( ( ( ^ ( ( ^ ( ( ( ^ ^ ( A.A.A.#X=X>X<X2X2X<X,X=X#X'.A.w.! A v 6 > + X 3X3X3X3X3X",
"3X3X3X3X3Xo % 2 x z A ) q.A.'.$X=X,X<X2X2X<X<X=X#X'.A.A.( ^ ^ ( ( ( ( ^ ( ( ( ( ( ( ( ( ( ( ( ( ( ^ ^ ( ^ A.'.#X=X,X<X2X2X<X,X=X#X'.A.w.! A v 6 > - X 3X3X3X3X3X",
"3X3X3X3X3Xo % 1 M v A ! q.A.'.#X=X,X2X2X2X<X,X=X#X'.A.( ( ( ^ ^ ( ( ( ( ( ( ( ( ( ( ( ( ( ( ^ ( ^ Q ^ ( A.A.'.#X=X,X<X2X2X<X,X=X#X'.A.w.! F v 6 > + X 3X3X3X3X3X",
"3X3X3X3X3Xo % > 6 v A ! q.A.'.#X=X;X<X2X2X<X;X=X#X'.A.A.( ^ ^ ( ( ( ( ( ( ( ( ( ( ( ( ( ( ( ^ ^ ^ Q Q A.A.A.'.#X=X>X<X2X2X<X>X=XoX'.A.q.! A z 6 > + X 3X3X3X3X3X",
"3X3X3X3X3XO % 1 6 z A ! 8.A.'.{.*X:X:X<X<X,X:X-X#X`.A.w.( Q Q Q ( ^ ) ) ( ) ( ) / / / / / / / / / ^ ^ ) w.N.'.{.*X;X1X:X1X:X;X*X{.'.A.9.W m z 6 * % X 3X3X3X3X3X",
"3X3X3X3X3Xo % > 6 z n E 8.A.`.}.#X-X:X:X:X:X-X#X'.`.N.q.^ W W Q W Q Q Q Q W ! Q ! ! ! ! ! ! ! ! W W W ) 9.N._.{.$X=X;X:X:X;X-X$X{.`.A.8.~ n z 6 * % O 3X3X3X3X3X",
"3X3X3X3X3Xo % > 3 M n E 8.A.S.[. X%X%X&X&X%X$XXX}.S.B.8.W R R R R R R W R W R R R R R R R R R R R R R W 8.B.S.[.XX$X%X&X&X%X%XXX[.S.q.8.E v M 1 ; o O 3X3X3X3X3X",
"3X3X3X3X3Xo % > 3 M z A Y 0.A.U.]..X X+X+X X.X@X/.Z.0.6.E m A A F A A A A A A A A R A I R A R A A m m R ) v.Z./.[..X X+X+X X.X].U.C.v.6.F z M = ; % o 3X3X3X3X3X",
"3X3X3X3X3Xo % ; 1 6 c D 6.0.V.Y.~.).).@X@X).^.~.Y.V.0.&.F F F F L U U U U U U U I I I I I I I I I A I I &.v.V.Y.E.).).).).).(.^.Y.V.0.6.D c 6 > ; % o 3X3X3X3X3X",
"3X3X3X3X3X% - : 2 9 C K ..5.c.K.I.E.^.^.^.^.^.I.V.c.5.=.%.&.6.&.8.7.6.6.6.6.7.7.7.7.7.7.7.7.7.&.&.7.U &.7.4.b.P.I.^.Q.(.(.(.!.R.K.c.5...L C 9 2 - + o 3X3X3X3X3X",
"3X3X3X3X3X@ - w t C ......l.c.K.T.R.W.Q.Q.Q.R.T.J.c.s.5.0.5.0.M.M.M.Z.Z.Z.Z.Z.Z.M.M.M.M.M.M.M.M.M.v.v.4.4.f.b.V.L.R.Q.Q.W.W.W.L.J.c.s.2...| d i < + O 3X3X3X3X3X",
"3X3X3X3X3X@ - w s  ...2.l.c.J.K.T.R.W.W.Q.W.R.T.K.F.c.c.c.Z.Y.S.U._.`.`.`.`.`.`._._._._._._._././.M.M.V.b.b.V.n.R.R.Q.Q.W.W.W.L.J.J.l.s.p. .| p w -   3X3X3X3X3X",
"3X3X3X3X3X. - t `  .r.d.D.J.K.T.T.W.W.W.W.W.R.T.L.J.J.K.Y.U.[.}.oXoXoXoXXXoXoXoXoXoXoXoXXXoXXXoX}.[.U.I.K.J.K.L.R.R.W.W.W.W.W.T.T.K.J.l.x.r. .` t -   3X3X3X3X3X",
"3X3X3X3X3X  - t ` :.i.l.J.K.T.T.R.W.W.W.W.R.W.R.T.L.L.R.~.].XXOX$X*X*X*X*X*X*X*X*X*X*X*X*X*X*X*XOX|.].~.I.L.T.T.R.W.W.W.W.W.W.T.R.T.L.J.l.y.:.` t :   3X3X3X3X3X",
"3X3X3X3X3X  - p [ >.i.D.G.L.T.R.T.R.R.R.R.W.R.T.T.T.L.!.~.@X X-X-X;X;X;X;X=X=X=X;X*X*X;X;X;X:X*X-X|.@X~.!.L.L.T.T.W.W.R.W.T.T.T.T.T.T.K.D.a.>.[ t - . 3X3X3X3X3X",
"3X3X3X3X3X  - t [  .a.z.H.G.L.L.L.L.T.T.T.H.T.T.L.H.L.I.E.].|.OX-X-X*X*X-X*X-X*X*X*X*X*X*X*X*X*X$X|.).~.I.L.G.G.G.G.G.T.T.T.T.T.L.T.K.F.z.i.:.` t - . 3X3X3X3X3X",
"3X3X3X3X3X  - w }  .r.g.l.D.F.F.D.D.H.D.D.D.D.D.D.D.l.J.I.~.].|.XXOX$X$XXXXXoXXXXXXXXXXXOX%X$XXX|.].~.P.J.n.n.D.D.D.D.D.D.D.D.D.F.D.z.z.i.r.{ l t - O 3X3X3X3X3X",
"3X3X3X3X3X@ - w s `  .>.r.i.i.j.j.D.D.D.D.D.D.D.g.i.i.x.c.K.Y.~.(.[.[.(././././././././././././.U.I.V.b.d.i.d.h.j.j.D.D.D.j.D.z.x.h.a.r.>. .` p w + . 3X3X3X3X3X",
"3X3X3X3X3X@ - - w s `  . . .e.i.u.u.j.g.j.j.t.t.t.e.:.:.2.s.c.J.P.V.P.V.b.V.V.V.b.V.V.V.P.P.P.P.V.V.d.y.,.:.>.r.g.g.h.h.h.h.g.u.t.e.:. .| ` s r < % @ 3X3X3X3X3X",
"3X3X3X3X3X- - - < 2 w s |  . .O.t.u.u.g.u.u.u.e.e. ..... .:.r.s.d.k.d.y.4.O.o.X.o.;.;.e.u.d.d.d.d.y.,.+.| ] -.>.u.u.u.g.g.u.u.t.e. .| j s i w , - - - 3X3X3X3X3X",
"3X3X3X3Xr , - - : & 4 4 y j o.>.t.i.g.u.j.g.i.t.:. . .|  . .r.r.u.u.O.X.{ _ } a e _ _ { O.O.t.t.t.>.@.' J J  .e.r.g.g.j.j.g.u.u.>. .` u 2 1 & % - - < r 3X3X3X3X",
"3X3X3Xj y r , - + # # 5 i k o.r.i.j.D.D.D.D.j.i.r...| J .. .r.i.g.g.O.X._ e q 0 0 q q _ X.e.u.t.i.r.-.| J .. .r.i.x.j.D.D.j.j.g.r. .j i 1 $ $ & ; , r y k 3X3X3X",
"+.+.' k u y 4 : & # $ = i ' >.i.D.D.H.H.D.D.D.D.s.........2.p.j.D.D.O.O._ e q 0 0 q e _ O.u.D.D.x.a.1....... .p.z.D.F.H.H.F.D.x.i.:.| i 1 $ $ @ : < t g k +.+.+.",
"+.+.o.k g y 4 : % $ $ 7 d  .>.k.D.G.G.T.G.T.G.D.D.3.......r.s.J.D.D.D.u.X._ } q e e _ { O.D.D.D.D.l.y.#.....p.x.J.K.T.T.T.T.K.D.x.>. .d 1 $ $ % : 4 y g k o.+.+.",
"+.+.+.k g u 4 , % $ $ 7 d  .r.z.J.T.R.W.W.R.L.K.l.p.1.*.1.p.l.K.D.H.D.u.O.{ _ _ _ _ { O.u.D.H.G.J.l.s.1...1.p.l.J.T.R.W.W.T.T.H.z.r.@.d 2 $ @ % , r u h o.o.+.+.",
"+.+.o.k g u r , % $ $ 7 d  .y.l.L.T.R.Q.Q.W.R.L.l.p.1.%.1.p.J.J.T.H.D.D.u.O.O.X.X.O.e.u.D.H.G.T.L.c.s.1...1.s.D.L.R.W.Q.W.W.T.H.l.r. .h 7 $ $ & , r u h k k +.+.",
"+.+.+.k g u r , & $ $ 7 h  .i.l.L.T.W.Q.Q.Q.R.K.J.p.1.*.1.s.J.K.T.T.H.D.D.u.u.e.u.u.j.D.F.G.L.R.L.J.s.3.=.1.s.c.L.R.Q.Q.Q.W.R.L.z.i.@.d 7 $ $ & : r u h k +.o.o.",
"@.+.+.k k u r , & @ $ 7 d @.i.z.K.R.Q.Q.Q.Q.R.L.l.p.1.*.1.s.J.K.R.T.T.T.D.D.D.D.D.D.D.D.G.T.R.R.L.c.s.3.=.3.s.c.K.R.Q.Q.Q.Q.T.K.l.i. .h 7 $ @ & , r u h k o.T o.",
"o.T o.k h u r , & @ $ 7 g  .i.l.G.R.W.Q.Q.W.R.K.J.s.1.*.1.p.J.K.R.R.R.T.L.G.G.G.L.G.G.G.T.R.R.R.J.J.s.3...1.s.c.L.R.W.Q.Q.W.R.K.z.a. .d 7 $ # & , r u h k +.+.+.",
"o.o.+.k h u r , & $ $ 7 d @.a.z.G.R.W.W.Q.W.R.L.c.s.1.*.1.5.l.J.T.R.T.T.T.T.L.L.L.L.T.T.T.R.L.L.J.c.5.1.*.1.s.J.K.R.W.Q.Q.Q.T.L.l.y. .j 7 $ @ & , r u k k o.+.@.",
"+.+.k k h u r : % $ $ 7 h  .r.l.G.R.W.Q.Q.W.R.K.l.s.1.*...5.s.J.H.K.L.L.G.J.G.L.K.K.K.K.L.J.J.J.J.s.5.....3.s.c.L.R.W.Q.Q.W.T.L.z.a. .d 7 $ $ & , r u g k o.+.+.",
"+.+.o.o.h u r , # @ $ 2 d @.i.z.K.R.W.Q.Q.W.R.L.J.p.1.%.%.1.p.s.c.D.J.c.J.J.c.J.J.c.J.J.J.J.J.l.l.5.1.6...3.s.c.K.R.W.Q.Q.Q.T.K.l.y.@.h r $ # & , r u g k T +.+.",
"+.+.o.+.h u r , % @ $ 7 d -.y.l.L.R.W.W.!.W.R.K.l.s.1.%...%.1.5.p.s.s.s.s.s.s.s.s.s.s.s.s.s.p.p.2.3.&.....1.p.J.L.R.W.Q.Q.W.T.K.z.y.@.d 4 $ # * , r y g k +.+.+.",
"+.+.+.k g u r , & $ $ 7 h  .a.z.K.R.W.W.Q.!.R.L.l.s.1.K L L Y %.=.1.1.=...3.1.3.1.1.1.1.1.1.1.=.....L F K 1.p.c.L.T.W.Q.Q.W.T.L.n.y. .g 7 $ # + , r u k k o.+.+.",
"o.+.+.k h g y < ; $ * 2 j  .r.z.J.R.W.Q.Q.W.R.K.J.s.1.K L S D L K K L ..U ....K K K ..L L ..L ..L D S L K 1.s.V.P.T.Q.Q.Q.W.T.L.z.y.o.g 7 $ $ & , r u g k +.+.+.",
"T o.+.k j g u y 4 > = r d  .y.z.L.R.W.Q.Q.W.R.K.l.s.1.K S n n Z D D S S D Z D Z D Z Z S S A S S Z Z n S ..1.s.c.L.R.W.Q.Q.Q.T.H.n.y.@.g 4 $ . + , r g g ' +.+.+.",
"o.o.+.+.k k g u y 5 > 4 g o.y.k.G.R.W.W.W.W.T.G.n.d.1.T n n n n n n n n n n b n n n n n n n n N n n b I T =.f.m.T.T.(.W.W.W.T.H.D.O.o.f 4 # . % , r u h ' +.+.+.",
"+.+.+.+.k k k g g y 4 r g o.r.n.G.R.W.W.W.(.T.T.m.f.*.Y Z b v n n n n n n n b b n n n n n n n n n v b 9 T $.s.m.G.W.W.W.(.W.W.H.D.O.o.s , # . # 3X3X3X3X3X3X3X3X",
"+.;.+.+.+.k k k g u y r p o.O.n.H.R.W.W.W.W./.G.m.f.1.Y B b n n n Z V n I N N b b N N B 9 N N c n b b I T 1.f.b.H.T.T.(.T.W.T.H.n.t.o.u : @   3X3X3X3X3X3X3X3X3X",
"+.+.+.+.+.+.+.+.k g y y g o.t.j.F.L.W.W.W.T.G.G.b.f.1.T V Z n Z Z Z V n V N I V V I N I I N I I I b I N T 3.f.b.H.T.T.T.W.W.T.H.z.O.o.a - @ 3X3X3X3X3X3X3X3X3X3X",
"+.;.+.+.+.+.+.+.k k g g k o.O.d.n.H.T.T.T.G.V.H.l.5.<.T G S V V I V V V V V V I V G I C I g I C g I b T T *.4.b.V.G.T./.T.(.T.H.z.r.] p - 3X3X3X3X3X3X3X3X3X3X3X",
"+.+.+.+.+.+.+.+.k k g g k o.;.y.k.m.m.n.m.m.n.d.a.4.*.T G G V G G G k G G V k G G G g I I T g I T N T T T =.2.a.b.n.n.L.H.T.T./.z.e.] p 3X3X3X3X3X3X3X3X3X3X3X3X",
"3X3X3X+.+.+.+.+.+.k k k k o.;.4.y.d.d.k.k.k.d.d.4.<.$.T T k T T G H H G +.G T G k T G T k G H T V k T T T $.<.4.d.d.k.n.D.H.3X3X3X3X3X3X3X3X3X3X3X3X3X3X3X3X3X3X",
"3X3X3X3X+.+.+.+.+.o.k k o.o.;.;.,.4.4.4.4.4.4.4.<.;.+.+.T T k T H +.+.H +.+.T +.+.H +.+.k T +.+.k T T T +.$.;.<.4.4.4.d.z.3X3X3X3X3X3X3X3X3X3X3X3X3X3X3X3X3X3X3X",
"3X3X3X3X3X+.+.+.+.+.o.T o.+.+.+.T ;.;.;.;.;.;.o.$.+.;.+.+.+.T o.+.+.+.+.+.+.+.+.+.+.+.+.+.+.+.+.T +.+.+.+.+.;.;.+.;.;.4.3X3X3X3X3X3X3X3X3X3X3X3X3X3X3X3X3X3X3X3X",
"3X3X3X3X3X3X+.;.+.+.o.o.o.o.+.;.o.+.+.+.;.o.T +.+.+.+.+.+.+.+.o.+.+.+.+.+.+.+.+.+.+.+.+.+.+.+.;.+.+.+.+.+.+.+.+.+.+.+.+.3X3X3X3X3X3X3X3X3X3X3X3X3X3X3X3X3X3X3X3X",
"3X3X3X3X3X3X3X+.T ;.+.+.;.T +.+.+.+.+.+.+.+.+.+.+.+.+.+.+.+.+.+.+.+.+.+.+.+.+.;.+.+.+.+.+.+.o.T +.+.+.+.+.+.+.+.+.+.+.+.3X3X3X3X3X3X3X3X3X3X3X3X3X3X3X3X3X3X3X3X",
"3X3X3X3X3X3X3X3X3X3X3X3X3X3X3X3X3X3Xk +.+.+.+.+.+.+.+.+.+.+.+.+.+.+.+.+.+.+.+.+.+.+.+.+.+.+.+.+.+.o.+.+.+.+.+.+.+.+.+.+.3X3X3X3X3X3X3X3X3X3X3X3X3X3X3X3X3X3X3X3X",
"3X3X3X3X3X3X3X3X3X3X3X3X3X3X3X3X3X3X3X;.+.+.+.+.o.;.+.+.+.+.+.+.+.+.+.;.+.+.+.+.+.+.+.;.+.+.;.o.+.o.+.+.+.+.+.+.+.+.+.+.3X3X3X3X3X3X3X3X3X3X3X3X3X3X3X3X3X3X3X3X",
"3X3X3X3X3X3X3X3X3X3X3X3X3X3X3X3X3X3X3X3X+.+.+.+.+.+.+.+.+.+.;.+.+.+.+.+.+.+.;.+.+.+.+.+.+.+.T o.o.T +.+.+.+.+.+.+.+.+.+.3X3X3X3X3X3X3X3X3X3X3X3X3X3X3X3X3X3X3X3X",
"3X3X3X3X3X3X3X3X3X3X3X3X3X3X3X3X3X3X3X3X+.+.+.+.+.+.+.+.+.+.+.+.+.+.+.+.+.+.+.+.+.+.+.+.+.+.+.+.o.o.o.+.+.+.;.+.+.+.+.+.3X3X3X3X3X3X3X3X3X3X3X3X3X3X3X3X3X3X3X3X",
"3X3X3X3X3X3X3X3X3X3X3X3X3X3X3X3X3X3X3X3X;.+.+.+.+.+.+.+.+.+.+.+.+.+.+.+.+.+.+.+.+.+.+.+.+.+.+.;.o.T ;.+.+.+.+.+.+.+.+.+.3X3X3X3X3X3X3X3X3X3X3X3X3X3X3X3X3X3X3X3X"
};
