/* XPM */
static char *_736_dd70948440ab6082d4cfecf3f964a962d37d519d1552d7d41c103bea0510c6a8[] = {
/* columns rows colors chars-per-pixel */
"85 80 151 2 ",
"   c #020100",
".  c #0C0504",
"X  c #120705",
"o  c #1A0400",
"O  c #140A06",
"+  c #1D0902",
"@  c #1D0D0B",
"#  c #1E100B",
"$  c #1F1214",
"%  c #200C02",
"&  c #221007",
"*  c #2E1906",
"=  c #22120D",
"-  c #271A0F",
";  c #2F1B0F",
":  c #251613",
">  c #271910",
",  c #2E1D14",
"<  c #301E14",
"1  c #301F19",
"2  c #332116",
"3  c #3F2815",
"4  c #362419",
"5  c #39261B",
"6  c #3E2A1D",
"7  c #3F2A20",
"8  c #2B2630",
"9  c #362C31",
"0  c #412B1D",
"q  c #46301F",
"w  c #4A331E",
"e  c #50361E",
"r  c #543A1F",
"t  c #452E20",
"y  c #4A2F22",
"u  c #473021",
"i  c #4C3323",
"p  c #503625",
"a  c #523925",
"s  c #5A3D23",
"d  c #563C29",
"f  c #593E2A",
"g  c #433332",
"h  c #503B33",
"j  c #5D4026",
"k  c #5E422C",
"l  c #5F482E",
"z  c #5D4334",
"x  c #5A443E",
"c  c #624324",
"v  c #684726",
"b  c #6B4A25",
"n  c #62452E",
"m  c #63492D",
"M  c #6A4C2C",
"N  c #724E26",
"B  c #714D29",
"V  c #765127",
"C  c #76512A",
"Z  c #7B5529",
"A  c #7C582F",
"S  c #664730",
"D  c #664A32",
"F  c #6B4B33",
"G  c #614739",
"H  c #704F36",
"J  c #695233",
"K  c #715036",
"L  c #7D5830",
"P  c #765438",
"I  c #785539",
"U  c #755F3B",
"Y  c #7D673F",
"T  c #3A3B4B",
"R  c #473E47",
"E  c #514143",
"W  c #564749",
"Q  c #4D4B5B",
"!  c #514953",
"~  c #474D65",
"^  c #494D63",
"/  c #525062",
"(  c #53566D",
")  c #535A74",
"_  c #535D79",
"`  c #585F7A",
"'  c #855C2C",
"]  c #895E2C",
"[  c #815F34",
"{  c #8F632E",
"}  c #93652E",
"|  c #96682F",
" . c #8D6331",
".. c #846539",
"X. c #86693E",
"o. c #926530",
"O. c #976C37",
"+. c #9E6E32",
"@. c #9D753E",
"#. c #A06F33",
"$. c #A27236",
"%. c #A97635",
"&. c #AF7A37",
"*. c #AE7D3E",
"=. c #B17C37",
"-. c #B17D39",
";. c #846C41",
":. c #8B7648",
">. c #A17D46",
",. c #BD863D",
"<. c #C48A3F",
"1. c #97824F",
"2. c #9F8852",
"3. c #A3844C",
"4. c #B58847",
"5. c #A38850",
"6. c #AE975B",
"7. c #BA9250",
"8. c #BB9E5C",
"9. c #C48C41",
"0. c #CA8E41",
"q. c #CC9347",
"w. c #C8974D",
"e. c #D19444",
"r. c #D59846",
"t. c #D49948",
"y. c #D99C49",
"u. c #DDA14D",
"i. c #CEA258",
"p. c #D5A051",
"a. c #DDA451",
"s. c #DBAB5C",
"d. c #E2A854",
"f. c #E3AE5B",
"g. c #C0A764",
"h. c #CBAF68",
"j. c #D1AB61",
"k. c #D0B067",
"l. c #DDB465",
"z. c #D7B86D",
"x. c #DCB96B",
"c. c #E5B563",
"v. c #E2BB6A",
"b. c #5B6583",
"n. c #5D6887",
"m. c #5D6989",
"M. c #606C8D",
"N. c #647194",
"B. c #677598",
"V. c #68769A",
"C. c None",
/* pixels */
"V.B.N.m._ ~ T 8 $ o o + @ @ @ @ @ @ @ & @ @ @ @ @ @ @ @ @ @ @ @ & @ & @ @ @ @ @ @ @ @ @ & @ @ @ @ = @ @ @ @ @ & @ @ @ @ @ @ @ @ & @ @ @ + o o $ 8 T ^ _ n.N.B.V.V.V.B.B.B.",
"B.B.N.n._ ~ T 8 : % % % : = = = = = = = = = = = = = = = = = = = = = $ = = = = = = = = = = = = = = = = = = = = = = = = = = = = = = = = = & % % = 8 T ^ _ n.N.N.B.B.B.B.B.B.",
"N.N.m.b.) ^ R 9 1 * * ; , < < < , , , < < , < , < ; < < , , , , < , , ; , , < < , , < < < , , , , ; , < , , < < < , < ; , ; 1 < < < , , < * * < 9 T ^ ) b.M.N.N.N.N.N.N.N.",
"m.n.b.` ( Q R g t 3 3 5 0 6 0 0 0 0 0 0 0 0 0 0 0 0 0 0 0 0 0 0 0 0 0 0 0 0 0 0 0 0 0 0 0 0 0 0 0 0 0 0 0 0 0 0 0 0 0 0 0 0 0 0 5 0 0 0 5 0 0 0 g R Q ( ` b.n.m.m.m.n.n.n.",
"_ _ ) ( / ! E h p p e p p p p p i p a i p p p p p p p p p p p p p p p a i p p p p p p i p p p p p p p p p p p p p p p p i p p p p p p p p e p p h R ! / ( ` _ _ b._ _ _ _ ",
"~ ^ ^ Q ! W E z f n j n f k f n k k k k k k n f k f k k f n k n n k k j k k k k k k k k n f n f k f k k f n f n f k k k k k k k j n n k f n f n z G W W Q Q ~ ~ ~ ~ ~ ~ ~ ",
"T T T R E x G F F F M F F F F F F F F F F F F F F F S F F F F F S F F F F F S F F F F F F F F F F F S F F F F F F F F F F F F S F S F F F M F F F G R R R R T T T T T T T ",
"8 8 9 g h z D F H H H H H H H H K H K K K F H H H H K K H H H H H H H H H H H H H H H H H H H H H H K K H H H H H H H H H K K K P H H H H H K F F F S h g 9 8 8 8 8 8 8 8 ",
"$ : ; 0 a f M K P P P P P P P P P P P P P P P P P P P P P P P P I P P P K P P K P K I K K I K I P P P P P P P P I P K P P K P P H I K I K I P P H F k p t 1 : $ @ $ : $ $ ",
"o % * 0 p n F K P P I P P P P P P P P P P P P P P P P P P P P P I P P P I I I I I I I I I I I I P P P P P P P P I I I P I I I I P I I I I I P P H F j p 3 * % o X o + + % ",
"o % * 0 p c F K P I I I P P P P P P I I P P P P P P I I P P I P I I I P I I I I I I I I I I I I P P P P P I P I P I I I I I P I I I I I I I I P H H j p 3 * % o o + o o % ",
"+ % ; 0 p f F H P P P P P P P P P P P P P P P P P P K P P P I I P P K P K P I I P K P P K I K I P P P P P P P P P H P P K P P K P I H P K I I P H S k p 5 ; = o O % & & % ",
"@ = < 6 p f S H H P K P H K K K H H H H K K K H H K H K F K K K H H H H H H H H H H H H H H H H H H H H H H H K H H H H H K K K H H H H H H H H H S j p 6 ; = @ = = = & @ ",
"@ : < 5 i f n F F H F F F F F F F F F F F F F F F F F F F F F F F F F F F F F F F F F F H F F F F F F F F F F F F F F S F F F F F F H M H H H H F n d p 0 , = & @ & = = @ ",
"& = ; 4 w a n n F n S n n n n n n n n n n n k n n k S n l l l z n n n S n n n n S S z S n n n S n n S n k n k S S S S S S S S S n n n n n S S S S f d w 5 ; = @ @ $ = = $ ",
"@ $ ; 4 0 p d f k k f s d d d d d a d d d d d d d d d d d d a j d d p d d d d p p d p d a d d p d d d d d d d d d p d d p p d p d d d d f f k k f d p 0 1 ; $ @ @ @ = = = ",
"= = ; 1 0 y p d d d p i i u u u u u i u i i w u u u u u u i u i i i u u i u u u i u i u u i y i t u u i u u u u i u i q i i i u u u u i i d d d d p i 6 1 ; $ = @ = = = @ ",
"= @ ; 1 0 w p a a p i t 6 7 6 6 7 7 7 7 6 7 6 6 6 6 7 7 6 6 6 7 6 6 7 6 6 6 t 7 6 6 7 6 7 6 6 6 6 6 6 6 6 6 7 6 7 7 7 6 6 6 6 6 6 6 7 6 u u p p p p u 6 < ; = & = @ = @ @ ",
"= = : 1 0 y p d a p u 7 6 4 5 5 6 6 5 6 6 6 6 5 5 5 4 4 5 5 5 5 6 6 6 6 6 6 6 5 6 6 6 6 6 6 6 5 6 4 6 4 4 4 5 5 6 6 6 6 6 6 6 5 5 5 4 6 7 u p d a a i 6 1 ; $ @ @ = = = @ ",
"@ @ , 1 q p d f d d i 6 5 4 4 5 6 6 7 6 7 6 6 6 5 4 4 4 4 4 5 6 6 6 t 0 6 7 7 0 6 7 6 t 6 6 0 6 6 6 4 4 4 4 4 5 6 6 6 7 6 6 6 6 5 4 4 4 6 i d d f d a 0 1 ; = = @ @ = = = ",
"= = ; 5 y d j n k d i t 6 4 6 6 6 u q q q 7 q 7 6 5 4 4 4 5 6 t q u u t t t t t u u t t t t t t 6 6 5 5 4 4 5 6 6 q q q u 7 q 7 6 5 4 5 u i d k n k d u 5 < = @ @ = = = = ",
"@ = , 5 y f n S n k d u 6 4 6 0 u u u i i i i q t 6 5 5 5 5 t t u u i u i i u i u i i u i i u i u 0 6 5 5 5 6 t u u u i i i u q 6 6 6 6 u a k n m n f i 5 < = & @ $ = = = ",
"@ = ; 0 p k F F M l d u 6 6 6 0 u i i p i i i i t 0 6 6 6 t t i i i i i i p i i i i i i p i i i u t 0 5 5 5 7 t i i i p p i i i 0 6 6 6 u d n F F F f p 0 < = @ @ @ @ = = ",
"@ = < 0 a k S H F z d u 6 6 6 t i p p a a a i i u t 6 6 6 t u i i p i d p i d a a p p a p p p p i t 0 6 5 6 6 u i i p p p a i i u 6 6 7 i d n F F F n p 0 ; = @ @ & = = = ",
"@ = < 0 a n S H F n d i 6 6 6 u i i p a a p i i i u t t t t i i a p p p p p p p p p p p p p p i i u 6 5 5 5 t t i i p p a p p i t 6 6 t i d n F F F S p y , = @ @ @ @ = = ",
"@ = , 0 p n F F F S d i 7 6 7 u u p p p p p p p i i u u i y i i p p p p p p p p p p p p p p p p i u 6 6 5 6 6 u i p p p p p i i t 6 6 6 i d n F F F n p 0 1 = @ @ = = = = ",
"@ = , t a n F F S S d i 6 6 6 t i p p p p p p p p i i i i i i p p p p p p p p p p p p p p p p p i t 0 6 5 6 6 t i p p p a p p i t 7 6 0 u k z D F F k p 6 ; = @ @ = = $ @ ",
"& = , 0 p n S H F S d i 6 6 7 t i i p p p p p a p p p i p p p p p p p p p p p p p p p p p p p p i u 7 6 6 6 t t i i p p a p i u t 6 6 6 i d l F F F k i t , = @ @ @ = @ = ",
"@ @ , t i k F F F S d u 7 6 6 t u i p p p p p i p p p p p p p p p p p p p p p p p p p p p p p p i u t 7 0 0 t y i p p a p a i i t 0 6 7 y d z F H F k p 0 ; = @ @ @ = @ = ",
"@ = , 0 p k F F F z d i 7 6 6 t i p p p p p p p p p p p i p p p p p p p p p p p p i p p p p p p i i u t t t t i i p p p a i i i t 6 5 7 i d n F F F n p y , = @ @ @ = = = ",
"@ = , 0 p k S H F n d i 6 6 7 u i p p p p p p a p p p p p p p p p p p p p p p p p p p p p p p i p i u i u i i i i p p p p p i i t 7 6 0 u d S F F F k p 0 ; : @ @ = = = = ",
"@ : , t p S F F F n d u 6 6 6 u u i p p p p p i p p p p p p p p p p p p p p p p p p p p p p p p p i i i i i i i p p p p p p i i t 7 5 0 i d n F H F n p 0 1 = @ @ @ = = @ ",
"@ = , 0 a k F K D l j i 6 6 6 t y i p p p p p p p p p p p p p p p p p p p p p p p p p p p p p p p p p p i p p p p p p p p p p y t 6 6 6 u d z F F F n a 0 , = @ @ = = = = ",
"@ = , 0 a k F F F l h u 6 6 7 t y i p p p p p p p p p p p p p p p p p p p p p p p p p p p p p p p p p p p p p i p i y p p i i y t 6 6 6 i d S F F F k a 0 , = @ @ @ @ = = ",
"@ = , 0 a k F F F S d u 7 6 6 t i p p p p p p p p p p p p p p p p p p p p p p p p y p p p p p p p p p p p i i i y y y y y y i t 6 6 6 0 i d z F F D l i 0 , : @ @ @ = = @ ",
"= = , 6 a k F F F z k u 7 5 6 t y p p p p p p p p p p p p p p p p p p p p p p p p p p p p p p p p p p p p i i i y y y y y y y t 6 6 6 6 u k m D F F n a 0 , = @ @ = = = = ",
"@ = < 0 a k F F F n d i 7 6 6 u i i p p p p p p p p p p p p p p p p p p p p p p p p p p p p p p p p p p p p p p a a a a d d a i q 0 6 6 i d n F H F k a 6 < = & @ = = @ = ",
"@ = , 0 a k F F F n d u 6 6 6 u i i p p p p p p p p p p p p p i p p p p p p p p p p p p p p p p p y p p p h k k J J J F D m c k a w q 0 u d n F F F k a 0 , = @ @ @ = = = ",
"@ = < 0 a k F F F z d i 6 6 6 t i p p p p p i p p p p p p p p p p p p p p p p p p p p p p p p p p p p p f S J Y Y ;.;.X.X.L L C v s w u i d n F F F n a 0 , = @ @ @ = = = ",
"@ = , 0 p l F F F l k u 7 6 6 t i i p p p p p p p p p p p p p p p p p p p p p p p p p p p p p p p y y p z J Y :.1.2.5.3.>.@.O. .Z b s i i d l F F F k a 0 , = @ @ = = @ = ",
"@ = , 0 p k F F F S d u 7 6 6 u y i p p p p p p p p p p p p p p p p p p p p p p p i p p p p p p p i i a k Y :.2.6.8.8.8.7.4.4.+.} Z c e w d n F F F n p 0 < = @ @ @ $ = = ",
"@ : , 0 p n F F F n d u 7 6 6 u i i i p p p p p p p p p p p p p p p p p p p p p p p p p p p p p i y y a l Y 1.6.g.h.k.j.p.w.4.*.+.' b r i a z D F F n a 0 < = @ @ @ = = @ ",
"@ = < 0 p n F F D m k u 6 6 6 u i i p p p p p p p p p p p p p p p i p p p p p p p p p p p p p p p y u d J Y 2.8.h.z.x.l.s.p.q.<.%.{ V r p d k D F F f p 0 < = @ @ @ = = = ",
"@ = < 0 a n F F F z d i 7 6 6 u i i p p p p p p p p p p p p p p p p p p p p p p p p p p p p p p y y u d J ;.5.8.h.x.x.c.f.u.e.<.&.} V j i a k D F F n p 0 < = @ @ @ = & = ",
"@ = , 0 a l F F F n d u 7 6 6 t i p p p p p p p p p p i p p p p p p p p p p p p p p p p p p p p i y y d M X.3.8.j.l.c.c.f.a.t.<.%.} V r i p k D F F k p 0 , = @ @ = = = = ",
"@ = , 0 p k F F F z d i 6 6 6 t i i p p p p p p p p p p p p p p p p p p p p p p p p p p p p p p p y y p M ..>.7.p.s.f.f.d.u.y.<.,.| V j i a z F H F k a 0 < = @ @ @ & = @ ",
"@ = , 0 p n F F F S d i 6 6 7 t i i p p p p p p p p p p p p p p p p p p p p i p p p p p p p p p i i i p m [ @.4.w.p.u.a.u.y.e.<.&.} V j p p k F F F n a 0 , : @ @ @ $ = = ",
"& = , 0 p n F F D S d u 7 6 6 t i i p p p p p p p p p p p p p p p p p p p p p p p p p p p p p p p y i d n L O.,.4.q.t.t.t.r.<.,.%.{ N d i d k F F F k p 0 < = @ @ = = = = ",
"@ = , 0 a k F F F S d i 7 6 7 u i p p p p p p p p p p i p p p p p p p p p p p p p p p p p p p p p y p p n C o.#.-.4.<.<.<.<.<.=.+.{ c r i j l F F F l p 0 , = @ @ = = = @ ",
"@ : , 0 a k F F F n d u 7 6 6 t u p p p p p p p p p p p p p p p p p p p p p p i p p p p p p p p p y p p s B ' o.#.%.=.=.=.=.%.#.{ V c e u a z D F F k a 0 , = @ @ @ @ = = ",
"@ = , 0 a k F H F l d i 7 6 6 t w i p p p p p p p p p p p p p p p p p p p p p p p p p p p p p p p y p p d c B Z ] { } } } } { ' Z b r q i j z D F F n p 0 , = @ @ @ = = = ",
"@ = , 0 a k F F F S d u 6 6 6 t i i p p p p p p p p p p p p p p p p p p p p p p p p p p i p p p p p p p d s c m N N V V Z V N b c r w q u k l l F F k a 0 < = @ @ = @ = = ",
"@ = , 0 p n F F F l a g 6 6 6 u i p p p p p p p p p p p p i p p p p p p p p p p p p p p p p p p p p p p p p p a s r p s r r s e u q 6 6 i d S F F F k a 6 , = = @ = = = = ",
"@ = < 6 p k F F D l k i 7 6 6 t u p p p p p p p i i i i i i i p p p p p p p p p p p p p p p p p p p p p p p i t 0 0 0 6 0 0 0 5 5 5 5 6 u d l F F F k a 0 , = @ @ @ @ = = ",
"= = < 0 p k F F F n j u 7 6 6 t y i p p p p i p i u u u i i i p p p p p p p p p p p p p p p p p p p p p i i i t 0 6 1 7 6 1 5 4 4 1 4 6 i d n F F F k a 0 , = @ @ @ = = = ",
"@ = < 0 p n F F F n d u 6 6 6 t y p p p p p p i i y y 0 0 u i i p p p p p p p p p p p i p i p p p p p p p y i t t t 7 7 t 7 t 6 5 4 5 7 i d n F K F k a 0 , = @ @ @ = = # ",
"@ = < 6 a k F K F S d u 7 6 6 u u p p p a p p i u t 0 7 6 t y i i p p p p p p p p p p p p p p p p p p p p p i y y t y y i y u t 6 6 5 6 u k G F H F k a t , = @ @ = = @ = ",
"@ = , 0 a k F F F k d i 6 6 6 u i i p p p p p i u t 6 5 6 t t i p p p p p p p p p p p p p p p p p p p p p p p p p i p i i i i i t 6 6 6 u d l F F F k a 0 , = @ @ @ & = = ",
"@ : , 6 a k F F F z d i 7 6 6 u i p p p p p i i u t 6 5 6 0 t i i p p p p p p p p p p p p p p p p p p p p p i p p p p p p p i i u 6 6 6 u d z F F F z p 0 , = = @ @ $ = = ",
"@ = , 6 d k F F F S d u 6 6 6 t u p p a d p p u t 6 5 5 6 6 t i i p p p p p p p p p p p p p p p p p p p p p p p p p p p p p i i u 6 6 7 u j l F F F f p 0 , = @ @ = = = = ",
"@ = < 0 a k F F F l k u 6 6 6 u u p p p p p i i t 0 6 5 5 7 t i p p p p p p p p p p p p p p p p p p p p p p p p p p p p p p i i t 6 6 6 i d S F H S n a 0 , = @ @ = = @ = ",
"@ = < 0 a k F F F z d i 7 6 6 t i i p p a p p i t 6 6 5 5 7 t i y p p p p p p p p p p p p p p p i p p p p p p p p p p p p p i i u 6 6 6 i p S F F F n p 0 < = @ @ @ = = @ ",
"@ = < 0 a k F F F S d u 7 6 6 u i i p p p p i i u 0 6 4 7 7 y y p p p p p p p p p p p p p p p p p p p p p p p p p p p p p p i i u 6 7 7 u d S S F F j a 0 , $ @ @ @ & = $ ",
"@ = , 0 a k F F F l d i 6 6 6 t i p i d p p i i t 6 6 5 7 7 t y p p p p p p p p p p p p p p p p p p i y i i i i p p p d p p i i u 7 6 7 y d S F H S n a 0 ; = @ @ = = = = ",
"@ = < 0 p n F H F S d u 7 6 6 q i p p a a p i i u t 6 5 6 7 u i p p p p a p p a p a p p a p a p p i i u u u i i p p p p p a p u t 0 6 6 i d S F F F n d 0 < = @ @ & = = = ",
"= = < 0 p k S H F S d i 7 6 6 q i p i a a p p i u 6 6 5 5 7 u i p p p p a p p a a p p p p p p p p i u y t u u i i p p a a p p i t 0 6 0 i d S F F F n p 0 < = @ @ = $ @ @ ",
"@ = < 0 p k S H D l j i 7 6 6 q i p a i p p p u t 6 6 5 6 6 u u i p p p p p p p p p p p p p p p y u 0 0 0 0 t y i p a i p p i u t 0 6 6 u d n F F F k a 0 , = @ @ @ = = = ",
"@ = , 6 p f S S l l a q 6 6 6 6 u i i i i i i u t 6 5 4 4 6 u u i i i i i p i i w p i p i i i y y 0 0 6 5 5 0 t u w i i i p i y 0 6 5 6 u a k D F n k i 3 , = @ @ & = = = ",
"@ = < 5 w d j n l j u 7 4 4 4 6 0 t 0 q w 0 q 6 6 5 4 2 4 5 6 6 0 q w w w 0 w 0 q q w q q q 0 w 6 6 5 4 4 4 5 6 0 q q q q t q 0 5 4 4 4 t i d k n k d w 6 , : @ @ = @ @ = ",
"= = ; < 0 i a d a e 7 5 < < < 4 5 6 6 3 0 6 3 3 2 < < < , < 4 5 6 3 6 5 5 6 6 6 5 0 0 0 0 0 3 0 4 4 < , > , 2 2 4 3 6 6 6 3 6 4 4 < < < 4 q i p d d w 0 < > = @ @ = & = @ ",
"= = > < 4 0 0 w q 6 4 < - - - > , 2 2 2 2 2 2 < - - # # - - > < 2 2 2 2 2 < 2 2 < < < < < < < < < - > - - # > > < < 2 2 2 < , , - - - - - 4 6 q y 0 0 4 < > = @ @ = = = = ",
"@ = = > ; < 2 2 2 - - # # O # # = = = - = = = = # # # # O # # = = - = = - = - - = > > = & = > = = # O # O # # # = = - = - = - - # # # # # - , 2 2 < < ; > = = = $ = = = = ",
"@ = @ = # = = = # # O O . . . O O O O O O O O O O . O . . O O O O O O O O O O O O O O O O O O O O O O . . . . O O O O O O O O O . O . . O O # # # # # # = & @ # # @ & @ $ ",
"@ @ @ @ @ O . .     .             .     .                             . .       .       .                             .                     .   . O O # @ @ @ @ @ @ @ @ @ ",
"@ O X X .                                                                                                                                             O O O @ O @ O O @ @ ",
"X X X X .     C.C.C.C.C.C.C.C.C.C.C.C.C.C.C.C.C.C.C.C.C.C.C.C.C.C.C.C.C.C.C.C.C.C.C.C.C.C.C.C.C.C.C.C.C.C.C.C.C.C.C.C.C.C.C.C.C.C.C.C.C.C.C.C.C.C.    . . . X O X X X X X ",
". . . .     C.C.C.C.C.C.C.C.C.C.C.C.C.C.C.C.C.C.C.C.C.C.C.C.C.C.C.C.C.C.C.C.C.C.C.C.C.C.C.C.C.C.C.C.C.C.C.C.C.C.C.C.C.C.C.C.C.C.C.C.C.C.C.C.C.C.C.C.  .   . . . . . . . . ",
"          C.C.C.C.C.C.C.C.C.C.C.C.C.C.C.C.C.C.C.C.C.C.C.C.C.C.C.C.C.C.C.C.C.C.C.C.C.C.C.C.C.C.C.C.C.C.C.C.C.C.C.C.C.C.C.C.C.C.C.C.C.C.C.C.C.C.C.C.C.C.                    ",
"          C.C.C.C.C.C.C.C.C.C.C.C.C.C.C.C.C.C.C.C.C.C.C.C.C.C.C.C.C.C.C.C.C.C.C.C.C.C.C.C.C.C.C.C.C.C.C.C.C.C.C.C.C.C.C.C.C.C.C.C.C.C.C.C.C.C.C.C.C.C.                    ",
"          C.C.C.C.C.C.C.C.C.C.C.C.C.C.C.C.C.C.C.C.C.C.C.C.C.C.C.C.C.C.C.C.C.C.C.C.C.C.C.C.C.C.C.C.C.C.C.C.C.C.C.C.C.C.C.C.C.C.C.C.C.C.C.C.C.C.C.C.C.C.                    "
};
