/* XPM */
static char *_041_f399b2b980d0ccbc95ab9dd2fef3352c67a499f17f1eb8c3c762294c2f3361a3[] = {
/* columns rows colors chars-per-pixel */
"80 80 93 2 ",
"   c #000000",
".  c #0F0603",
"X  c #01010A",
"o  c #0D0E0E",
"O  c #110703",
"+  c #160B05",
"@  c #1B0E06",
"#  c #1E1007",
"$  c #1F1108",
"%  c #160D10",
"&  c #141414",
"*  c #191817",
"=  c gray11",
"-  c #24150A",
";  c #29170C",
":  c #2B1A0D",
">  c #321F11",
",  c #372113",
"<  c #3C2415",
"1  c #3F2917",
"2  c #38261A",
"3  c #3F291B",
"4  c #131B32",
"5  c #2D2A24",
"6  c #282829",
"7  c #3F2928",
"8  c #353029",
"9  c #3F2D32",
"0  c #3C3B3D",
"q  c #402717",
"w  c #412817",
"e  c #442A19",
"r  c #4A2F1C",
"t  c #4C321D",
"y  c #50351F",
"u  c #493224",
"i  c #493428",
"p  c #533721",
"a  c #573A23",
"s  c #583A23",
"d  c #573A28",
"f  c #5B3D2A",
"g  c #402D33",
"h  c #433C33",
"j  c #553B32",
"k  c #553D38",
"l  c #51493F",
"z  c #60412A",
"x  c #654532",
"c  c #6F4D35",
"v  c #6C4C38",
"b  c #73503A",
"n  c #7C563E",
"m  c #0D274C",
"M  c #0D284D",
"N  c #3E3E41",
"B  c #513C41",
"V  c #453E61",
"C  c #394A7B",
"Z  c #414144",
"A  c #464648",
"S  c #4B4B4E",
"D  c #544B46",
"F  c #4F4F52",
"G  c #535356",
"H  c #615749",
"J  c #7B5741",
"K  c #6C6255",
"L  c #756A5B",
"P  c #504760",
"I  c #464F7D",
"U  c #484E7B",
"Y  c #48507E",
"T  c #7D7060",
"R  c #825B43",
"E  c #8D644A",
"W  c #92684D",
"Q  c #966B50",
"!  c #9D7054",
"~  c #A27357",
"^  c #A7775A",
"/  c #AC7B5D",
"(  c #837564",
")  c #A4937C",
"_  c #1C4086",
"`  c #1D438A",
"'  c #204388",
"]  c #2555A0",
"[  c #2B5FAD",
"{  c #2C65B4",
"}  c #465285",
"|  c #425389",
" . c None",
/* pixels */
" . . . . . . . . . . . . . . . . . . . . . . . . . . . . . . . . . . . . . . . . . . . . . . . . . . . . . . . . . . . . . . . . . . . . . . . . . . . . . . . .",
" . . . . . . . . . . . . . . . . . . . . . . . . . . . . . . . . . . . . . . . . . . . . . . . . . . . . . . . . . . . . . . . . . . . . . . . . . . . . . . . .",
" . . . . . . . . . . . . . . . . . . . . . . . . . . . . . . . . . . . . . . . . . . . . . . . . . . . . . . . . . . . . . . . . . . . . . . . . . . . . . . . .",
" . . . . . . . . . . . . . . . . . . . . . . . . . . . . . . . . . . . . . . . . . . . . . . . . . . . . . . . . . . . . . . . . . . . . . . . . . . . . . . . .",
" . . . . . . . . . . . . . . . . . . . . . . . . . . . . . . . . . . . . . . . . . . . . . . . . . . . . . . . . . . . . . . . . . . . . . . . . . . . . . . . .",
" . . . . . . . . . . . . . . . . . . . . . . . . . . . . . . . . . . . . . . . . . . . . . . . . . . . . . . . . . . . . . . . . . . . . . . . . . . . . . . . .",
" . . . . . . . . . . . . . . . . . . . . . . . . . . . . . . . . . . . . . . . . . . . . . . . . . . . . . . . . . . . . . . . . . . . . . . . . . . . . . . . .",
" . . . . . . . . . . . . . . . . . . . . . . . . . . . . . . . . . . . . . . . . . . . . . . . . . . . . . . . . . . . . . . . . . . . . . . . . . . . . . . . .",
" . . . . . . . . . . . . . . . . . . . . . . . . . . . . . . . . . . . . . . . . . . . . . . . . . . . . . . . . . . . . . . . . . . . . . . . . . . . . . . . .",
" . . . . . . . . . . . . . . . . . . . . . . . . . . . . . . . . . . . . . . . . . . . . . . . . . . . . . . . . . . . . . . . . . . . . . . . . . . . . . . . .",
" . . . . . . . . . . . . . . . . . . . . . . . . . . . . . . . .               . . .                           . . . . . . . . . . . . . . . . . . . . . . . . .",
" . . . . . . . . . . . . . . . . . . . . . . . . . . . . . . . .               . . .                           . . . . . . . . . . . . . . . . . . . . . . . . .",
" . . . . . . . . . . . . . . . . . . . . . . . . . .                  , t t e X     , , , t t t t t t t #      . . . . . . . . . . . . . . . . . . . . . . . . .",
" . . . . . . . . . . . . . . . . . . . . . . . . . .                  1 a a t       w w < a a a s a a a -      . . . . . . . . . . . . . . . . . . . . . . . . .",
" . . . . . . . . . . . . . . . . . . . . . . . .& * # $ $ : : ; > ; : r a a p # - - e e r a a a t t t t @      . . . . . . . . . . . . . . . . . . . . . . . . .",
" . . . . . . . . . . . . . . . . . . . . . . .    . w q w a s a a a s s a a p 1 w w a a a a a a ,              . . . . . . . . . . . . . . . . . . . . . . . . .",
" . . . . . . . . . . . . . . . . . . . . . . .    O q < q s a a a a a a a a a < 1 < s a a a a s >              . . . . . . . . . . . . . . . . . . . . . . . . .",
" . . . . . . . . . . . . . . . . . . . . . . .    + a p a a a a a a a a a a a p a a a a s a a a u y y y 1 < < ;        . . . . . . . . . . . . . . . . . . . . .",
" . . . . . . . . . . . . . . . . . . . . . . .    @ s a a a a a a a a a a a a a a a a a a a a a s s s s e w 1 ;        . . . . . . . . . . . . . . . . . . . . .",
" . . . . . . . . . . . . . . . . . . . . . .@ - - : s a a a a a a a a a a a a a a a a s a a a a s s s s t e t , - - ; o  . . . . . . . . . . . . . . . . . . . .",
" . . . . . . . . . . . . . . . . . . .      ; w q e a a a a a a a a a a a a a a a a a a a a a s a a a a a a a t q q <        . . . . . . . . . . . . . . . . . .",
" . . . . . . . . . . . . . . . . . . .      ; w q e a a a a s a a a a a a a a a a a a a a a a a s a a a a a a t q 1 ,        . . . . . . . . . . . . . . . . . .",
" . . . . . . . . . . . . . . . . . . .      ; < q e a a a a a a a a a a a a a a a a a a a a a a a a a a s a a t q q <        . . . . . . . . . . . . . . . . . .",
" . . . . . . . . . . . . . . . . . . .      ; 1 q q a a a a a a a a a a a a a a a a a a a a a a a a a a a a a t q q <        . . . . . . . . . . . . . . . . . .",
" . . . . . . . . . . . . . . . . . . .      ; 1 q e a a a a a a a a a s a a a a a a a a a a a s a a s s a a s t q q <        . . . . . . . . . . . . . . . . . .",
" . . . . . . . . . . . . . . . . . . .      ; 1 q q a a a s a a a a a a a a a a a a a s a a a a a a a s a s s r q q <        . . . . . . . . . . . . . . . . . .",
" . . . . . . . . . . . . . . . . . . .      - q q e a a s s a a a a a a a a a a a a a a a a a a a a s s s a s t q q <        . . . . . . . . . . . . . . . . . .",
" . . . . . . . . . . . . . . . . . . .      - 1 q q t r r a a a a a a a a a a a a a a a a a a a a a s s u r t e q q >        . . . . . . . . . . . . . . . . . .",
" . . . . . . . . . . . . . . . . . . .      ; 1 q q q q q s a a a a a s s a a a a a a a s s a a a a a a e q q q q q <        . . . . . . . . . . . . . . . . . .",
" . . . . . . . . . . . . . . . . . . . .    ; w < q q q q a a a a a a s a a a a a a s a s y a a a a a a e q q q q 1 ,        . . . . . . . . . . . . . . . . . .",
" . . . . . . . . . . . . . . . . . . . . . . .    O q q q q q q < q w t a a a a a a a s s w q q q q < q q q q q q q <        . . . . . . . . . . . . . . . . . .",
" . . . . . . . . . . . . . . . . . . . . . . .    O q q q q q q q q w u a a a a a a a s s w q q q q q q q q q q q q <        . . . . . . . . . . . . . . . . . .",
" . . . . . . . . . . . . . . . . . . . . . . .    O q w q q q q q q q e t r r r r r r r r q q q q q q q w 1 q > ; ; -  . . . . . . . . . . . . . . . . . . . . .",
" . . . . . . . . . . . . . . . . . . . . . . .    O q w q q q q q q q q q q q q q q q q q q q q q q q q 1 w q :        . . . . . . . . . . . . . . . . . . . . .",
" . . . . . . . . . . . . . . . . . . . . . . .    @ f f f q q q q q q q q q q q q q q q q q q q q q q q d f f 3        . . . . . . . . . . . . . . . . . . . . .",
" . . . . . . . . . . . . . . . . . . . . . . .    2 / / / w q q q q q q q q q q q q q q q q q q q q q < ! / / J        . . . . . . . . . . . . . . . . . . . . .",
" . . . . . . . . . . . . . . . . . . . . . . .    2 / / / 1 < < < q q q q q q q q q q q w < < w < q q < ~ / / J        . . . . . . . . . . . . . . . . . . . . .",
" . . . . . . . . . . . . . . . . . . . . . . . . . .x x x W Q Q Q Q Q b q q q q q q q q < W Q W Q W W Q v z x i  . . . . . . . . . . . . . . . . . . . . . . . .",
" . . . . . . . . . . . . . . . . . . . . . . . . . .      / / / / / / R w w q q q q w w < ^ / / / / / / u      . . . . . . . . . . . . . . . . . . . . . . . . .",
" . . . . . . . . . . . . . . . . . . . . . . . . . .      ! ! ! ^ / / E x x x x c x x x x ^ / / ~ ~ ! ! e      . . . . . . . . . . . . . . . . . . . . . . . . .",
" . . . . . . . . . . . . . . . . . . . . . . . . . .      a a y ~ / / / / / / / / / / / / / / / n a a a -      . . . . . . . . . . . . . . . . . . . . . . . . .",
" . . . . . . . . . . . . . . . . . . . . . . . . . .      s a a ~ / / / / / / / / / / / / / / / n a a a $      . . . . . . . . . . . . . . . . . . . . . . . . .",
" . . . . . . . . . . . . . . . . . . . . . . .            a a a c c c c c c c c c c c c c c c c f a a a -      . . . . . . . . . . . . . . . . . . . . . . . . .",
" . . . . . . . . . . . . . . . . . . . . . . .            a a a p s s s a a s a s s s s a a s a a s a a -      . . . . . . . . . . . . . . . . . . . . . . . . .",
" . . . . . . . . . . . . . . . . . . . . . .5 h h h H H H s s s s s a a a a a a s s a a a a a a a a a s $      . . . . . . . . . . . . . . . . . . . . . . . . .",
" . . . . . . . . . . . . . . . . . . .      h K K L ) ) ) s a s s s a a a a a a s s a a a a a a a a a s -      . . . . . . . . . . . . . . . . . . . . . . . . .",
" . . . . . . . . . . . . . . . . . . .      l K K L ) ) ) s s s s s s a a a a a s a a a a a a a s s a s -      . . . . . . . . . . . . . . . . . . . . . . . . .",
" . . . . . . . . . . . . . . . . . . .      9 K K K ( ( ( e e w y s s a a s a a s a a a a s a a t e w w @      . . . . . . . . . . . . . . . . . . . . . . . . .",
" . . . . . . . . . . . . . . . . . . .      h K K K L ( T < w < p s s s s s a s a a a s s s a s r w w q +      . . . . . . . . . . . . . . . . . . . . . . . . .",
" . . . . . . . . . . . . . . . . . . . .    8 D l l H H H C C C I U I } I I U V V V V V V I Y Y C C C C 4      . . . . . . . . . . . . . . . . . . . . . . . . .",
" . . . . . . . . . . . . . . . . . . . . . . .            { { { { { { { { { [ ` ` ` ` ` ` { { { { { { { M      . . . . . . . . . . . . . . . . . . . . . . . . .",
" . . . . . . . . . . . . . . . . . . . . . . .            { { { { { { { { { [ ` ' ' ' ` ` [ { { { { { { m      . . . . . . . . . . . . . . . . . . . . . . . . .",
" . . . . . . . . . . . . . . . . . . . . . . . . . .      { { { { { { | k k k j j d 7 7 g 7 9 9 g g g g %      . . . . . . . . . . . . . . . . . . . . . . . . .",
" . . . . . . . . . . . . . . . . . . . . . . . . .=       { { { { { { } a a a a a a q 1 q w q q q w q w +     &  . . . . . . . . . . . . . . . . . . . . . . . .",
" . . . . . . . . . . . . . . . . . . . . . . . .S 0       ] ] ] | } } P a a a a a a ; : ; : : ; ; : : ; 0 0 0 N Z G  . . . . . . . . . . . . . . . . . . . . . .",
" . . . . . . . . . . . . . . . . . . . . . . .G G F       ` ` ` B s s f a a a a a a                     S G G G G G F  . . . . . . . . . . . . . . . . . . . . .",
" . . . . . . . . . . . . . . . . . . . . . .Z G G F       _ _ _ B s a a a a a a a a       & & & & & & & G G G G G G F 6  . . . . . . . . . . . . . . . . . . . .",
" . . . . . . . . . . . . . . . . . . .G G G G G G F       X X X p s a a a a a a a a       F G G G G G G G G G G G G G G G G  . . . . . . . . . . . . . . . . . .",
" . . . . . . . . . . . . . . . . . . .G G G F G G F             t a a s a s s a s a       F G G G G G G G G G G G G G G G G  . . . . . . . . . . . . . . . . . .",
" . . . . . . . . . . . . . . . . . . .G G G G G G G Z Z Z Z A A D D D D D D D D D D Z Z Z G G G G G G G G G G G G G G G G G  . . . . . . . . . . . . . . . . . .",
" . . . . . . . . . . . . . . . . . . .G G G G G G G G G G G G G G G G G G G G G G G G G G G G G G G G G G G G G G G G G G G  . . . . . . . . . . . . . . . . . .",
" . . . . . . . . . . . . . . . . . . .G G G G G G G G G G G G G G G G G G G G G G G G G G G G G G G G G G G G G G G G G G  . . . . . . . . . . . . . . . . . . .",
" . . . . . . . . . . . . . . . . . . . . . .A G G G G G G G G G G G G G G G G G G G G G G G G G G G G G G G G G G G G  . . . . . . . . . . . . . . . . . . . . .",
" . . . . . . . . . . . . . . . . . . . . . . .G G G G G G G G G G G G G G G G G G G G G G G G G G G G G G G G G G G G  . . . . . . . . . . . . . . . . . . . . .",
" . . . . . . . . . . . . . . . . . . . . . . . . . . . . . . . . . . . . . . . . . . . . . . . . . . . . . . . . . . . . . . . . . . . . . . . . . . . . . . . .",
" . . . . . . . . . . . . . . . . . . . . . . . . . . . . . . . . . . . . . . . . . . . . . . . . . . . . . . . . . . . . . . . . . . . . . . . . . . . . . . . .",
" . . . . . . . . . . . . . . . . . . . . . . . . . . . . . . . . . . . . . . . . . . . . . . . . . . . . . . . . . . . . . . . . . . . . . . . . . . . . . . . .",
" . . . . . . . . . . . . . . . . . . . . . . . . . . . . . . . . . . . . . . . . . . . . . . . . . . . . . . . . . . . . . . . . . . . . . . . . . . . . . . . .",
" . . . . . . . . . . . . . . . . . . . . . . . . . . . . . . . . . . . . . . . . . . . . . . . . . . . . . . . . . . . . . . . . . . . . . . . . . . . . . . . .",
" . . . . . . . . . . . . . . . . . . . . . . . . . . . . . . . . . . . . . . . . . . . . . . . . . . . . . . . . . . . . . . . . . . . . . . . . . . . . . . . .",
" . . . . . . . . . . . . . . . . . . . . . . . . . . . . . . . . . . . . . . . . . . . . . . . . . . . . . . . . . . . . . . . . . . . . . . . . . . . . . . . .",
" . . . . . . . . . . . . . . . . . . . . . . . . . . . . . . . . . . . . . . . . . . . . . . . . . . . . . . . . . . . . . . . . . . . . . . . . . . . . . . . .",
" . . . . . . . . . . . . . . . . . . . . . . . . . . . . . . . . . . . . . . . . . . . . . . . . . . . . . . . . . . . . . . . . . . . . . . . . . . . . . . . .",
" . . . . . . . . . . . . . . . . . . . . . . . . . . . . . . . . . . . . . . . . . . . . . . . . . . . . . . . . . . . . . . . . . . . . . . . . . . . . . . . .",
" . . . . . . . . . . . . . . . . . . . . . . . . . . . . . . . . . . . . . . . . . . . . . . . . . . . . . . . . . . . . . . . . . . . . . . . . . . . . . . . .",
" . . . . . . . . . . . . . . . . . . . . . . . . . . . . . . . . . . . . . . . . . . . . . . . . . . . . . . . . . . . . . . . . . . . . . . . . . . . . . . . .",
" . . . . . . . . . . . . . . . . . . . . . . . . . . . . . . . . . . . . . . . . . . . . . . . . . . . . . . . . . . . . . . . . . . . . . . . . . . . . . . . .",
" . . . . . . . . . . . . . . . . . . . . . . . . . . . . . . . . . . . . . . . . . . . . . . . . . . . . . . . . . . . . . . . . . . . . . . . . . . . . . . . .",
" . . . . . . . . . . . . . . . . . . . . . . . . . . . . . . . . . . . . . . . . . . . . . . . . . . . . . . . . . . . . . . . . . . . . . . . . . . . . . . . .",
" . . . . . . . . . . . . . . . . . . . . . . . . . . . . . . . . . . . . . . . . . . . . . . . . . . . . . . . . . . . . . . . . . . . . . . . . . . . . . . . ."
};
