/* XPM */
static char *_0483_12d28379148301f2ffa836d5ea44fb3a5a4bc02b603ae03f064b73b1df3d73a8[] = {
/* columns rows colors chars-per-pixel */
"80 80 186 2 ",
"   c #010000",
".  c #0C0502",
"X  c #040509",
"o  c #0C0A0B",
"O  c #110703",
"+  c #140A04",
"@  c #1A0E06",
"#  c #120D0E",
"$  c #1E1107",
"%  c #1F1208",
"&  c #1A150E",
"*  c #151516",
"=  c #1A1514",
"-  c #1A1A1A",
";  c #1D1A15",
":  c #02081A",
">  c #23140A",
",  c #29170B",
"<  c #2B1A0E",
"1  c #311D0F",
"2  c #2A1D19",
"3  c #311F11",
"4  c #2D2119",
"5  c #362113",
"6  c #3C2515",
"7  c #3B261A",
"8  c #3E2A1C",
"9  c #392619",
"0  c #05142B",
"q  c #091D3B",
"w  c #1D2231",
"e  c #292726",
"r  c #322A21",
"t  c #39282B",
"y  c #3A342A",
"u  c #302F30",
"i  c #3D3C3E",
"p  c #383137",
"a  c #402717",
"s  c #412817",
"d  c #442A19",
"f  c #492E1C",
"g  c #4D321E",
"h  c #51351F",
"j  c #56381D",
"k  c #422C29",
"l  c #4D3321",
"z  c #423329",
"x  c #4C382E",
"c  c #523621",
"v  c #563A23",
"b  c #593B24",
"n  c #563A2A",
"m  c #5B3D2A",
"M  c #473638",
"N  c #563D33",
"B  c #533D3F",
"V  c #5D422D",
"C  c #5B4232",
"Z  c #574A3C",
"A  c #61422C",
"S  c #634533",
"D  c #6C4B35",
"F  c #684932",
"G  c #714F3A",
"H  c #75513A",
"J  c #7A553E",
"K  c #092142",
"L  c #17325E",
"P  c #0E2756",
"I  c #3F3F42",
"U  c #133363",
"Y  c #253864",
"T  c #433F40",
"R  c #523D44",
"E  c #3A4573",
"W  c #444446",
"Q  c #4C4441",
"!  c #464649",
"~  c #4C4C4E",
"^  c #554843",
"/  c #53424C",
"(  c #5C4B4B",
")  c #574B42",
"_  c #5E5143",
"`  c #4F4F51",
"'  c #524557",
"]  c #535356",
"[  c #665647",
"{  c #7D5741",
"}  c #7E5942",
"|  c #725A45",
" . c #7F5F52",
".. c #6C604F",
"X. c #726352",
"o. c #716051",
"O. c #4E4A6A",
"+. c #5F5E6E",
"@. c #484B73",
"#. c #4A507E",
"$. c #6E5765",
"%. c #7F7261",
"&. c #666372",
"*. c #6B6570",
"=. c #7C787F",
"-. c #835C44",
";. c #835E4A",
":. c #8A634B",
">. c #876047",
",. c #95694F",
"<. c #896A58",
"1. c #9B6E53",
"2. c #946B51",
"3. c #83735F",
"4. c #9E7155",
"5. c #99765C",
"6. c #A47559",
"7. c #A7785A",
"8. c #AB7A5D",
"9. c #A07256",
"0. c #886E6B",
"q. c #8A7B66",
"w. c #8D7D69",
"e. c #847663",
"r. c #9A7C64",
"t. c #8A7C7B",
"y. c #AC7E62",
"u. c #A67965",
"i. c #94836D",
"p. c #9E8269",
"a. c #968773",
"s. c #9B8B75",
"d. c #AD8164",
"f. c #AA866A",
"g. c #B08365",
"h. c #A08D75",
"j. c #B28E72",
"k. c #B49376",
"l. c #B69578",
"z. c #B4997D",
"x. c #B89A7D",
"c. c #A39178",
"v. c #1E458B",
"b. c #184892",
"n. c #25549D",
"m. c #25589F",
"M. c #285498",
"N. c #3B5C9E",
"B. c #2A5EAA",
"V. c #2558A4",
"C. c #2C61AE",
"Z. c #3262AD",
"A. c #3865AE",
"S. c #2C65B4",
"D. c #3264B1",
"F. c #3D6BB5",
"G. c #475587",
"H. c #575C84",
"J. c #405995",
"K. c #415792",
"L. c #77798C",
"P. c #6E7693",
"I. c #757A92",
"U. c #7B7F96",
"Y. c #4266AA",
"T. c #8F7D83",
"R. c #84758A",
"E. c #7D8197",
"W. c #7D8198",
"Q. c #84899D",
"!. c #BA9D80",
"~. c #B6A186",
"^. c #BCA285",
"/. c #BBA68A",
"(. c #BEA98C",
"). c #B7A388",
"_. c #8088A0",
"`. c #969BAB",
"'. c #999DAB",
"]. c #9194A1",
"[. c #999FB2",
"{. c #9DA3B4",
"}. c #A3A7B4",
"|. c #C1AB8E",
" X c #C2AD90",
".X c None",
/* pixels */
".X.X.X.X.X.X.X.X.X.X.X.X.X.X.X.X.X.X.X.X.X.X.X.X.X.X.X.X.X.X.X.X.X.X.X.X.X.X.X.X.X.X.X.X.X.X.X.X.X.X.X.X.X.X.X.X.X.X.X.X.X.X.X.X.X.X.X.X.X.X.X.X.X.X.X.X.X.X.X.X",
".X.X.X.X.X.X.X.X.X.X.X.X.X.X.X.X.X.X.X.X.X.X.X.X.X.X.X.X.X.X.X.X.X.X.X.X.X.X.X.X.X.X.X.X.X.X.X.X.X.X.X.X.X.X.X.X.X.X.X.X.X.X.X.X.X.X.X.X.X.X.X.X.X.X.X.X.X.X.X.X",
".X.X.X.X.X.X.X.X.X.X.X.X.X.X.X.X.X.X.X.X.X.X.X.X.X.X.X.X.X.X.X.X.X.X.X.X.X.X.X.X.X.X.X.X.X.X.X.X.X.X.X.X.X.X.X.X.X.X.X.X.X.X.X.X.X.X.X.X.X.X.X.X.X.X.X.X.X.X.X.X",
".X.X.X.X.X.X.X.X.X.X.X.X.X.X.X.X.X.X.X.X.X.X.X.X.X.X.X.X.X.X.X.X.X.X.X.X.X.X.X.X.X.X.X.X.X.X.X.X.X.X.X.X.X.X.X.X.X.X.X.X.X.X.X.X.X.X.X.X.X.X.X.X.X.X.X.X.X.X.X.X",
".X.X.X.X.X.X.X.X.X.X.X.X.X.X.X.X.X.X.X.X.X.X.X.X.X.X.X.X.X.X.X.X.X.X.X.X.X.X.X.X.X.X.X.X.X.X.X.X.X.X.X.X.X.X.X.X.X.X.X.X.X.X.X.X.X.X.X.X.X.X.X.X.X.X.X.X.X.X.X.X",
".X.X.X.X.X.X.X.X.X.X.X.X.X.X.X.X.X.X.X.X.X.X.X.X.X.X.X.X.X.X.X.X.X.X.X.X.X.X.X.X.X.X.X.X.X.X.X.X.X.X.X.X.X.X.X.X.X.X.X.X.X.X.X.X.X.X.X.X.X.X.X.X.X.X.X.X.X.X.X.X",
".X.X.X.X.X.X.X.X.X.X.X.X.X.X.X.X.X.X.X.X.X.X.X.X.X.X.X.X.X.X.X.X.X.X.X.X.X.X.X.X.X.X.X.X.X.X.X.X.X.X.X.X.X.X.X.X.X.X.X.X.X.X.X.X.X.X.X.X.X.X.X.X.X.X.X.X.X.X.X.X",
".X.X.X.X.X.X.X.X.X.X.X.X.X.X.X.X.X.X.X.X.X.X.X.X.X.X.X.X.X.X.X.X.X.X.X.X.X.X.X.X.X.X.X.X.X.X.X.X.X.X.X.X.X.X.X.X.X.X.X.X.X.X.X.X.X.X.X.X.X.X.X.X.X.X.X.X.X.X.X.X",
".X.X.X.X.X.X.X.X.X.X.X.X.X.X.X.X.X.X.X.X.X.X.X.X.X.X.X.X.X.X.X.X.X.X.X.X.X.X.X.X.X.X.X.X.X.X.X.X.X.X.X.X.X.X.X.X.X.X.X.X.X.X.X.X.X.X.X.X.X.X.X.X.X.X.X.X.X.X.X.X",
".X.X.X.X.X.X.X.X.X.X.X.X.X.X.X.X.X.X.X.X.X.X.X.X.X.X.X.X.X.X                    .X.X.X.X.X      .X.X.X.X.X.X.X.X.X.X.X.X.X.X.X.X.X.X.X.X.X.X.X.X.X.X.X.X.X.X.X.X",
".X.X.X.X.X.X.X.X.X.X.X.X.X.X.X.X.X.X.X.X.X.X.X.X.X.X.X.X.X    . + + + @ + + O O & - - ; @ + + O X o o .X.X.X.X.X.X.X.X.X.X.X.X.X.X.X.X.X.X.X.X.X.X.X.X.X.X.X.X.X",
".X.X.X.X.X.X.X.X.X.X.X.X.X.X.X.X.X.X.X.X.X.X.X.X.X.X.X.X.X  . < g v c c g g 6 6 3 O X 6 v h g 6 .               .X.X.X.X.X.X.X.X.X.X.X.X.X.X.X.X.X.X.X.X.X.X.X.X",
".X.X.X.X.X.X.X.X.X.X.X.X.X.X.X.X.X.X.X.X.X.X.X.X.X.X.X.X.X  O < d c v v c g d d 5 @ O 6 v v h d > @ $ @ @ + O + ; .X.X.X.X.X.X.X.X.X.X.X.X.X.X.X.X.X.X.X.X.X.X.X",
".X.X.X.X.X.X.X.X.X.X.X.X.X.X.X.X.X.X.X.X.X.X.X.X.X.X.X.X      . + > 6 c v v v v h s 6 g v v v v h v h c c g s 6 >     .X.X.X.X.X.X.X.X.X.X.X.X.X.X.X.X.X.X.X.X.X",
".X.X.X.X.X.X.X.X.X.X.X.X.X.X.X.X.X.X.X.X.X.X.X.X.X.X.X.X@ + + @ $ < 6 h v v v v c d d g v v v v v b b v v g d 6 >       .X.X.X.X.X.X.X.X.X.X.X.X.X.X.X.X.X.X.X.X",
".X.X.X.X.X.X.X.X.X.X.X.X.X.X.X.X.X.X.X.X.X.X.X.X.X.X.X@ 3 6 a d g v v v v v v v v v v v v b v b v v v v b v b c 5       .X.X.X.X.X.X.X.X.X.X.X.X.X.X.X.X.X.X.X.X",
".X.X.X.X.X.X.X.X.X.X.X.X.X.X.X.X.X.X.X.X.X.X.X.X.X.X. @ 5 d d f c v v v v v v v v j v v v v v v v v v b v v v v 1 O . . .X.X.X.X.X.X.X.X.X.X.X.X.X.X.X.X.X.X.X.X",
".X.X.X.X.X.X.X.X.X.X.X.X.X.X.X.X.X.X.X.X.X.X.X.X. < 1 5 f h h h v v v v v v v v c g g h v v v v b v v v v v v v s 1 1 < > .X.X.X.X.X.X.X.X.X.X.X.X.X.X.X.X.X.X.X",
".X.X.X.X.X.X.X.X.X.X.X.X.X.X.X.X.X.X.X.X.X.X.X  . 3 s d c v v v v v v v v v v v h d s g v v v v b v v b v v v v f s a 6 < .X.X.X.X.X.X.X.X.X.X.X.X.X.X.X.X.X.X.X",
".X.X.X.X.X.X.X.X.X.X.X.X.X.X.X.X.X.X.X.X.X.X    O 8 h h v v v v v v c f f f d l d a a d f f f h v v v v v v v v c h h g <   .X.X.X.X.X.X.X.X.X.X.X.X.X.X.X.X.X.X",
".X.X.X.X.X.X.X.X.X.X.X.X.X.X.X.X.X.X.X.X.X.X    O d b j v v b v v v h d a d a a a a a a a a d g v v v v v b v v v v v h 5     .X.X.X.X.X.X.X.X.X.X.X.X.X.X.X.X.X",
".X.X.X.X.X.X.X.X.X.X.X.X.X.X.X.X.X.X.X.X.X.X    O d v b v v v v v v h d d f c v v c c n v v b m A A b v v v v v v v v l 3     .X.X.X.X.X.X.X.X.X.X.X.X.X.X.X.X.X",
".X.X.X.X.X.X.X.X.X.X.X.X.X.X.X.X.X.X.X.X.X.X    O f v v b v v v v c h d A -.6.8.7.8.7.7.8.7.8.8.7.,.H d d g v v v v v h 3     .X.X.X.X.X.X.X.X.X.X.X.X.X.X.X.X.X",
".X.X.X.X.X.X.X.X.X.X.X.X.X.X.X.X.X.X.X.X.X.X    O f v b v v v v v v v v G :.7.8.8.8.8.8.8.8.8.8.7.4.} b b b v v v b v l 3     .X.X.X.X.X.X.X.X.X.X.X.X.X.X.X.X.X",
".X.X.X.X.X.X.X.X.X.X.X.X.X.X.X.X.X.X.X.X.X.X    O d b v v v v h f c J 4.7.8.8.8.8.8.8.8.8.8.8.8.8.8.8.7.6.-.l d h v v g 5     .X.X.X.X.X.X.X.X.X.X.X.X.X.X.X.X.X",
".X.X.X.X.X.X.X.X.X.X.X.X.X.X.X.X.X.X.X.X.X.X    O d v v v v v v l m J 4.8.8.8.y.y.y.y.y.8.g.8.y.8.7.8.8.7.-.l d g v v g 3     .X.X.X.X.X.X.X.X.X.X.X.X.X.X.X.X.X",
".X.X.X.X.X.X.X.X.X.X.X.X.X.X.X.X.X.X.X.X.X.X    . 6 g g v v b F -.;.-.-.<.u.l.x.x.x.x.x.x.x.k.5.-.-.4.8.7.-.l a 6 9 6 5 < .X.X.X.X.X.X.X.X.X.X.X.X.X.X.X.X.X.X.X",
".X.X.X.X.X.X.X.X.X.X.X.X.X.X.X.X.X.X.X.X.X.X    . 1 6 d j j m H 1.9.;.n _ r.|. X(.|.|.(.|.|.~.w.l S ,.y.y.-.n f < O . . .X.X.X.X.X.X.X.X.X.X.X.X.X.X.X.X.X.X.X.X",
".X.X.X.X.X.X.X.X.X.X.X.X.X.X.X.X.X.X.X.X.X.X.X.X.X> > < l b V | p.p.%.M _ i./. X|. X|.|. X(.~.w.k [ r.!.!.f.2.:.n +     .X.X.X.X.X.X.X.X.X.X.X.X.X.X.X.X.X.X.X.X",
".X.X.X.X.X.X.X.X.X.X.X.X.X.X.X.X.X.X.X.X.X.X.X.X.X    % g v A | i.a.%.C _ i./. X X X|. X X(.~.w.z [ h.(.|.k.y.6.S +     .X.X.X.X.X.X.X.X.X.X.X.X.X.X.X.X.X.X.X.X",
".X.X.X.X.X.X.X.X.X.X.X.X.X.X.X.X.X.X.X.X.X.X.X.X.X    > b A F X.i.s.q.Z ..s./. X X(.|. X X(.).i.) X.c. X Xk.g.7.S +     .X.X.X.X.X.X.X.X.X.X.X.X.X.X.X.X.X.X.X.X",
".X.X.X.X.X.X.X.X.X.X.X.X.X.X.X.X.X.X.X.X.X.X.X.X.X    d 2.7.8.f.z.x.)././.(.|. X|. X|. X X X(.(./.(.(. X Xl.y.7.S +     .X.X.X.X.X.X.X.X.X.X.X.X.X.X.X.X.X.X.X.X",
".X.X.X.X.X.X.X.X.X.X.X.X.X.X.X.X.X.X.X.X.X.X.X.X.X    k ,.6.7.f.z.~.^.(. X X(. X X|.|.|. X|.|. X|.|.|.|.|.j.8.1.S +     .X.X.X.X.X.X.X.X.X.X.X.X.X.X.X.X.X.X.X.X",
".X.X.X.X.X.X.X.X.X.X.X.X.X.X.X.X.X.X.X.X.X.X.X.X.X    @ a l v H 4.f.l./. X X X X|. X X|. X|. X|.|.^.j.8.8.;.n l <       .X.X.X.X.X.X.X.X.X.X.X.X.X.X.X.X.X.X.X.X",
".X.X.X.X.X.X.X.X.X.X.X.X.X.X.X.X.X.X.X.X.X.X.X.X.X.X  + 3 6 l S ,.d.j./.|.|./. X X|.|. X(. X|.|.(.!.j.8.7.{ l 6 >       .X.X.X.X.X.X.X.X.X.X.X.X.X.X.X.X.X.X.X.X",
".X.X.X.X.X.X.X.X.X.X.X.X.X.X.X.X.X.X.X.X.X.X.X.X.X.X.XO , < 5 l H :.5.j.l.l.l.l.l.k.k.z.k.k.k.l.k.j.4.-.-.V 5 < @   .X.X.X.X.X.X.X.X.X.X.X.X.X.X.X.X.X.X.X.X.X.X",
".X.X.X.X.X.X.X.X.X.X.X.X.X.X.X.X.X.X.X.X.X.X.X.X.X.X.X.X  . O > a m { 6.d.8.y.y.y.y.y.y.y.y.8.g.7.1.J f f 3 + . .X.X.X.X.X.X.X.X.X.X.X.X.X.X.X.X.X.X.X.X.X.X.X.X",
".X.X.X.X.X.X.X.X.X.X.X.X.X.X.X.X.X.X.X.X.X.X.X.X.X.X.X.X    . $ 6 f n H  .e.t.T.T.T.T.T.T.T.t.0.-.H m a 6 < .   .X.X.X.X.X.X.X.X.X.X.X.X.X.X.X.X.X.X.X.X.X.X.X.X",
".X.X.X.X.X.X.X.X.X.X.X.X.X.X.X.X.X.X.X.X.X.X.X.X.X.X.X.X    . % 3 a d f / &.I.U.U.U.E.E.Q.U.L.$.C v g a a < .   .X.X.X.X.X.X.X.X.X.X.X.X.X.X.X.X.X.X.X.X.X.X.X.X",
".X.X.X.X.X.X.X.X.X.X.X.X.X.X.X.X.X.X.X.X.X.X.X.X.X.X.X.X    . % 3 d d h ( &.I.I.Q.`.`.'.'.`.].=.C j c c c 5 O   .X.X.X.X.X.X.X.X.X.X.X.X.X.X.X.X.X.X.X.X.X.X.X.X",
".X.X.X.X.X.X.X.X.X.X.X.X.X.X.X.X.X.X.X.X.X.X.X.X.X.X.X.X    . & 6 d l v ( &.L.I._.{.}.}.}.}.'.Q.N j v v v 7 +   .X.X.X.X.X.X.X.X.X.X.X.X.X.X.X.X.X.X.X.X.X.X.X.X",
".X.X.X.X.X.X.X.X.X.X.X.X.X.X.X.X.X.X.X.X.X.X.X.X.X.X.X.Xr r r r a d f v ( &.P.P._.[.[.}.{.{.`.L.S v v v v l 7 7 4 .X.X.X.X.X.X.X.X.X.X.X.X.X.X.X.X.X.X.X.X.X.X.X",
".X.X.X.X.X.X.X.X.X.X.X.X.X.X.X.X.X.X.X.X.X.X.X.X.X.X.Xy %.i.i.%.[ c v n ' K.F.S.F.F.Y.F.F.Y.Y.G.N v m v b ;.6.9.S + X .X.X.X.X.X.X.X.X.X.X.X.X.X.X.X.X.X.X.X.X.X",
".X.X.X.X.X.X.X.X.X.X.X.X.X.X.X.X.X.X.X.X.X.X.X.X.X    y e.a.i.%.[ R R R O.K.D.S.S.S.S.S.S.D.Z.K.' R / R / <.y.6.S +     .X.X.X.X.X.X.X.X.X.X.X.X.X.X.X.X.X.X.X.X",
".X.X.X.X.X.X.X.X.X.X.X.X.X.X.X.X.X.X.X.X.X.X.X.X.X    y i.s.a.t.H.v.M.B.D.S.S.S.S.S.S.S.S.S.S.D.D.D.D.S.A.R.u.7.S +     .X.X.X.X.X.X.X.X.X.X.X.X.X.X.X.X.X.X.X.X",
".X.X.X.X.X.X.X.X.X.X.X.X.X.X.X.X.X.X.X.X.X.X.X.X.X    y %.s.a.t.H.b.V.C.S.S.S.S.S.S.S.S.S.S.S.S.S.S.S.S.D.R.u.6.S +     .X.X.X.X.X.X.X.X.X.X.X.X.X.X.X.X.X.X.X.X",
".X.X.X.X.X.X.X.X.X.X.X.X.X.X.X.X.X.X.X.X.X.X.X.X.X.X.Xy ] X...+.K.V.B.S.S.S.S.S.S.V.n.V.S.S.S.S.S.Z.K.#.#.$.;.} l O     .X.X.X.X.X.X.X.X.X.X.X.X.X.X.X.X.X.X.X.X",
".X.X.X.X.X.X.X.X.X.X.X.X.X.X.X.X.X.X.X.X.X.X.X.X.X.X.X; ; & w Y V.D.S.S.S.S.S.S.B.b.v.n.C.S.C.S.Z.N.@.N N m b b 5 X     .X.X.X.X.X.X.X.X.X.X.X.X.X.X.X.X.X.X.X.X",
".X.X.X.X.X.X.X.X.X.X.X.X.X.X.X.X.X.X.X.X.X.X.X.X.X.X.X.X    0 U V.S.S.S.S.S.S.S.V.U P Y E E E @.O.O.R n v v b h 3       .X.X.X.X.X.X.X.X.X.X.X.X.X.X.X.X.X.X.X.X",
".X.X.X.X.X.X.X.X.X.X.X.X.X.X.X.X.X.X.X.X.X.X.X.X.X.X.X.X    0 U m.S.S.S.S.S.S.S.M.K : 2 t t k x N n n v v v v v 5       .X.X.X.X.X.X.X.X.X.X.X.X.X.X.X.X.X.X.X.X",
".X.X.X.X.X.X.X.X.X.X.X.X.X.X.X.X.X.X.X.X.X.X.X.X.X.X.X.X    0 U M.A.Z.Z.D.S.B.D.M.q X > 6 a 6 g c v v j j v c g 9 = * * .X.X.X.X.X.X.X.X.X.X.X.X.X.X.X.X.X.X.X.X",
".X.X.X.X.X.X.X.X.X.X.X.X.X.X.X.X.X.X.X.X.X.X.X.X.X.X.X.X*   o 4 M R B R R M M p t #   . . O O O + @ + + + + + ; W ` ` ~ I .X.X.X.X.X.X.X.X.X.X.X.X.X.X.X.X.X.X.X",
".X.X.X.X.X.X.X.X.X.X.X.X.X.X.X.X.X.X.X.X.X.X.X.X.X] ] ] e   O < g v v b c g 6 6 3 - - - ; - - - - - * - - - * e ! ] ] ] ! .X.X.X.X.X.X.X.X.X.X.X.X.X.X.X.X.X.X.X",
".X.X.X.X.X.X.X.X.X.X.X.X.X.X.X.X.X.X.X.X.X.X] ] ] ] ] ` e   O < g j v v h 6 @ . u ` ` ` ] ] ` ] ` ] ] ] ` ] ] ] ] ] ] ] ] ] .X.X.X.X.X.X.X.X.X.X.X.X.X.X.X.X.X.X",
".X.X.X.X.X.X.X.X.X.X.X.X.X.X.X.X.X.X.X.X.X.X] ] ] ] ] ` e X * 4 l m b b l 8 = X p ` ] ] ] ] ] ] ] ] ] ] ] ] ] ] ] ] ] ] ] ] ] .X.X.X.X.X.X.X.X.X.X.X.X.X.X.X.X.X",
".X.X.X.X.X.X.X.X.X.X.X.X.X.X.X.X.X.X.X.X.X.X] ] ] ] ] ] W I i M Q ^ ^ ^ Q Q i i ! ` ] ] ] ] ] ] ] ] ] ] ] ] ] ] ] ] ] ] ] ] ] .X.X.X.X.X.X.X.X.X.X.X.X.X.X.X.X.X",
".X.X.X.X.X.X.X.X.X.X.X.X.X.X.X.X.X.X.X.X.X.X] ] ] ] ] ] ] ] ] ] ] ] ] ] ] ] ] ] ] ] ] ] ] ] ] ] ] ] ] ] ] ] ] ] ] ] ] ] ] ] ] .X.X.X.X.X.X.X.X.X.X.X.X.X.X.X.X.X",
".X.X.X.X.X.X.X.X.X.X.X.X.X.X.X.X.X.X.X.X.X.X.X.X! ` ] ] ] ] ] ] ] ] ] ] ] ] ] ] ] ] ] ] ] ] ] ] ] ] ] ] ] ] ] ] ] ] ] ] ~ .X.X.X.X.X.X.X.X.X.X.X.X.X.X.X.X.X.X.X",
".X.X.X.X.X.X.X.X.X.X.X.X.X.X.X.X.X.X.X.X.X.X.X.X.X] ] ] ] ] ] ] ] ] ] ] ] ] ] ] ] ] ] ] ] ] ] ] ] ] ] ] ] ] ] ] ] ] ] ] .X.X.X.X.X.X.X.X.X.X.X.X.X.X.X.X.X.X.X.X",
".X.X.X.X.X.X.X.X.X.X.X.X.X.X.X.X.X.X.X.X.X.X.X.X.X.X] ] ] ] ] ] ] ] ] ] ] ] ] ] ] ] ] ] ] ] ] +.] ] ] ] ] ] ] ] ] ] ] .X.X.X.X.X.X.X.X.X.X.X.X.X.X.X.X.X.X.X.X.X",
".X.X.X.X.X.X.X.X.X.X.X.X.X.X.X.X.X.X.X.X.X.X.X.X.X.X.X.X.X.X.X.X.X.X.X.X.X.X.X.X.X.X.X.X.X.X.X.X.X.X.X.X.X.X.X.X.X.X.X.X.X.X.X.X.X.X.X.X.X.X.X.X.X.X.X.X.X.X.X.X",
".X.X.X.X.X.X.X.X.X.X.X.X.X.X.X.X.X.X.X.X.X.X.X.X.X.X.X.X.X.X.X.X.X.X.X.X.X.X.X.X.X.X.X.X.X.X.X.X.X.X.X.X.X.X.X.X.X.X.X.X.X.X.X.X.X.X.X.X.X.X.X.X.X.X.X.X.X.X.X.X",
".X.X.X.X.X.X.X.X.X.X.X.X.X.X.X.X.X.X.X.X.X.X.X.X.X.X.X.X.X.X.X.X.X.X.X.X.X.X.X.X.X.X.X.X.X.X.X.X.X.X.X.X.X.X.X.X.X.X.X.X.X.X.X.X.X.X.X.X.X.X.X.X.X.X.X.X.X.X.X.X",
".X.X.X.X.X.X.X.X.X.X.X.X.X.X.X.X.X.X.X.X.X.X.X.X.X.X.X.X.X.X.X.X.X.X.X.X.X.X.X.X.X.X.X.X.X.X.X.X.X.X.X.X.X.X.X.X.X.X.X.X.X.X.X.X.X.X.X.X.X.X.X.X.X.X.X.X.X.X.X.X",
".X.X.X.X.X.X.X.X.X.X.X.X.X.X.X.X.X.X.X.X.X.X.X.X.X.X.X.X.X.X.X.X.X.X.X.X.X.X.X.X.X.X.X.X.X.X.X.X.X.X.X.X.X.X.X.X.X.X.X.X.X.X.X.X.X.X.X.X.X.X.X.X.X.X.X.X.X.X.X.X",
".X.X.X.X.X.X.X.X.X.X.X.X.X.X.X.X.X.X.X.X.X.X.X.X.X.X.X.X.X.X.X.X.X.X.X.X.X.X.X.X.X.X.X.X.X.X.X.X.X.X.X.X.X.X.X.X.X.X.X.X.X.X.X.X.X.X.X.X.X.X.X.X.X.X.X.X.X.X.X.X",
".X.X.X.X.X.X.X.X.X.X.X.X.X.X.X.X.X.X.X.X.X.X.X.X.X.X.X.X.X.X.X.X.X.X.X.X.X.X.X.X.X.X.X.X.X.X.X.X.X.X.X.X.X.X.X.X.X.X.X.X.X.X.X.X.X.X.X.X.X.X.X.X.X.X.X.X.X.X.X.X",
".X.X.X.X.X.X.X.X.X.X.X.X.X.X.X.X.X.X.X.X.X.X.X.X.X.X.X.X.X.X.X.X.X.X.X.X.X.X.X.X.X.X.X.X.X.X.X.X.X.X.X.X.X.X.X.X.X.X.X.X.X.X.X.X.X.X.X.X.X.X.X.X.X.X.X.X.X.X.X.X",
".X.X.X.X.X.X.X.X.X.X.X.X.X.X.X.X.X.X.X.X.X.X.X.X.X.X.X.X.X.X.X.X.X.X.X.X.X.X.X.X.X.X.X.X.X.X.X.X.X.X.X.X.X.X.X.X.X.X.X.X.X.X.X.X.X.X.X.X.X.X.X.X.X.X.X.X.X.X.X.X",
".X.X.X.X.X.X.X.X.X.X.X.X.X.X.X.X.X.X.X.X.X.X.X.X.X.X.X.X.X.X.X.X.X.X.X.X.X.X.X.X.X.X.X.X.X.X.X.X.X.X.X.X.X.X.X.X.X.X.X.X.X.X.X.X.X.X.X.X.X.X.X.X.X.X.X.X.X.X.X.X",
".X.X.X.X.X.X.X.X.X.X.X.X.X.X.X.X.X.X.X.X.X.X.X.X.X.X.X.X.X.X.X.X.X.X.X.X.X.X.X.X.X.X.X.X.X.X.X.X.X.X.X.X.X.X.X.X.X.X.X.X.X.X.X.X.X.X.X.X.X.X.X.X.X.X.X.X.X.X.X.X",
".X.X.X.X.X.X.X.X.X.X.X.X.X.X.X.X.X.X.X.X.X.X.X.X.X.X.X.X.X.X.X.X.X.X.X.X.X.X.X.X.X.X.X.X.X.X.X.X.X.X.X.X.X.X.X.X.X.X.X.X.X.X.X.X.X.X.X.X.X.X.X.X.X.X.X.X.X.X.X.X",
".X.X.X.X.X.X.X.X.X.X.X.X.X.X.X.X.X.X.X.X.X.X.X.X.X.X.X.X.X.X.X.X.X.X.X.X.X.X.X.X.X.X.X.X.X.X.X.X.X.X.X.X.X.X.X.X.X.X.X.X.X.X.X.X.X.X.X.X.X.X.X.X.X.X.X.X.X.X.X.X",
".X.X.X.X.X.X.X.X.X.X.X.X.X.X.X.X.X.X.X.X.X.X.X.X.X.X.X.X.X.X.X.X.X.X.X.X.X.X.X.X.X.X.X.X.X.X.X.X.X.X.X.X.X.X.X.X.X.X.X.X.X.X.X.X.X.X.X.X.X.X.X.X.X.X.X.X.X.X.X.X",
".X.X.X.X.X.X.X.X.X.X.X.X.X.X.X.X.X.X.X.X.X.X.X.X.X.X.X.X.X.X.X.X.X.X.X.X.X.X.X.X.X.X.X.X.X.X.X.X.X.X.X.X.X.X.X.X.X.X.X.X.X.X.X.X.X.X.X.X.X.X.X.X.X.X.X.X.X.X.X.X",
".X.X.X.X.X.X.X.X.X.X.X.X.X.X.X.X.X.X.X.X.X.X.X.X.X.X.X.X.X.X.X.X.X.X.X.X.X.X.X.X.X.X.X.X.X.X.X.X.X.X.X.X.X.X.X.X.X.X.X.X.X.X.X.X.X.X.X.X.X.X.X.X.X.X.X.X.X.X.X.X",
".X.X.X.X.X.X.X.X.X.X.X.X.X.X.X.X.X.X.X.X.X.X.X.X.X.X.X.X.X.X.X.X.X.X.X.X.X.X.X.X.X.X.X.X.X.X.X.X.X.X.X.X.X.X.X.X.X.X.X.X.X.X.X.X.X.X.X.X.X.X.X.X.X.X.X.X.X.X.X.X",
".X.X.X.X.X.X.X.X.X.X.X.X.X.X.X.X.X.X.X.X.X.X.X.X.X.X.X.X.X.X.X.X.X.X.X.X.X.X.X.X.X.X.X.X.X.X.X.X.X.X.X.X.X.X.X.X.X.X.X.X.X.X.X.X.X.X.X.X.X.X.X.X.X.X.X.X.X.X.X.X",
".X.X.X.X.X.X.X.X.X.X.X.X.X.X.X.X.X.X.X.X.X.X.X.X.X.X.X.X.X.X.X.X.X.X.X.X.X.X.X.X.X.X.X.X.X.X.X.X.X.X.X.X.X.X.X.X.X.X.X.X.X.X.X.X.X.X.X.X.X.X.X.X.X.X.X.X.X.X.X.X",
".X.X.X.X.X.X.X.X.X.X.X.X.X.X.X.X.X.X.X.X.X.X.X.X.X.X.X.X.X.X.X.X.X.X.X.X.X.X.X.X.X.X.X.X.X.X.X.X.X.X.X.X.X.X.X.X.X.X.X.X.X.X.X.X.X.X.X.X.X.X.X.X.X.X.X.X.X.X.X.X"
};
